<svg xmlns="http://www.w3.org/2000/svg" viewBox="0 0 256 360"><rect width="256" height="360" fill="#f8f4eb" rx="18"/><rect x="18" y="18" width="220" height="220" fill="#fffdf9" stroke="#d8d1c4" stroke-width="2" rx="16"/><line x1="36.00" y1="36.00" x2="36.00" y2="220.00" stroke="#d8d1c4" stroke-width="1"/><line x1="36.00" y1="36.00" x2="220.00" y2="36.00" stroke="#d8d1c4" stroke-width="1"/><line x1="62.29" y1="36.00" x2="62.29" y2="220.00" stroke="#d8d1c4" stroke-width="1"/><line x1="36.00" y1="62.29" x2="220.00" y2="62.29" stroke="#d8d1c4" stroke-width="1"/><line x1="88.57" y1="36.00" x2="88.57" y2="220.00" stroke="#d8d1c4" stroke-width="1"/><line x1="36.00" y1="88.57" x2="220.00" y2="88.57" stroke="#d8d1c4" stroke-width="1"/><line x1="114.86" y1="36.00" x2="114.86" y2="220.00" stroke="#d8d1c4" stroke-width="1"/><line x1="36.00" y1="114.86" x2="220.00" y2="114.86" stroke="#d8d1c4" stroke-width="1"/><line x1="141.14" y1="36.00" x2="141.14" y2="220.00" stroke="#d8d1c4" stroke-width="1"/><line x1="36.00" y1="141.14" x2="220.00" y2="141.14" stroke="#d8d1c4" stroke-width="1"/><line x1="167.43" y1="36.00" x2="167.43" y2="220.00" stroke="#d8d1c4" stroke-width="1"/><line x1="36.00" y1="167.43" x2="220.00" y2="167.43" stroke="#d8d1c4" stroke-width="1"/><line x1="193.71" y1="36.00" x2="193.71" y2="220.00" stroke="#d8d1c4" stroke-width="1"/><line x1="36.00" y1="193.71" x2="220.00" y2="193.71" stroke="#d8d1c4" stroke-width="1"/><line x1="220.00" y1="36.00" x2="220.00" y2="220.00" stroke="#d8d1c4" stroke-width="1"/><line x1="36.00" y1="220.00" x2="220.00" y2="220.00" stroke="#d8d1c4" stroke-width="1"/><path d="M 220.00 186.05 L 218.46 195.67 L 214.12 204.10 L 207.38 210.84 L 198.96 215.18 L 189.33 216.71 L 179.71 215.18 L 171.29 210.84 L 164.54 204.10 L 160.20 195.67 L 158.67 186.05 L 160.20 176.42 L 164.54 168.00 L 171.29 161.26 L 179.71 156.92 L 189.33 155.38 L 198.96 156.92 L 207.38 161.26 L 214.12 168.00 L 218.46 176.42 Z" fill="none" stroke="#1b6f84" stroke-width="3.2" stroke-linecap="round" stroke-linejoin="round" opacity="0.45"/><path d="M 97.33 63.38 L 95.80 73.01 L 91.46 81.43 L 84.71 88.17 L 76.29 92.51 L 66.67 94.05 L 57.04 92.51 L 48.62 88.17 L 41.88 81.43 L 37.54 73.01 L 36.00 63.38 L 37.54 53.76 L 41.88 45.33 L 48.62 38.59 L 57.04 34.25 L 66.67 32.71 L 76.29 34.25 L 84.71 38.59 L 91.46 45.33 L 95.80 53.76 Z" fill="none" stroke="#1b6f84" stroke-width="3.2" stroke-linecap="round" stroke-linejoin="round" opacity="0.45"/><path d="M 138.22 63.38 L 168.89 63.38 L 176.77 64.95 L 183.35 69.37 L 187.77 75.95 L 189.33 83.83 L 189.33 155.38 " fill="none" stroke="#1b6f84" stroke-width="3.2" stroke-linecap="round" stroke-linejoin="round" opacity="0.45"/><path d="M 66.67 94.05 L 66.67 216.71 " fill="none" stroke="#1b6f84" stroke-width="3.2" stroke-linecap="round" stroke-linejoin="round" opacity="0.45"/><path d="M 167.43 167.43 L 193.71 167.43 L 220.00 167.43 L 220.00 193.71 L 220.00 220.00 L 193.71 220.00 L 167.43 220.00 L 167.43 193.71 Z" fill="none" stroke="#e76f51" stroke-width="5.2" stroke-linecap="round" stroke-linejoin="round"/><path d="M 36.00 36.00 L 62.29 36.00 L 88.57 36.00 L 88.57 62.29 L 88.57 88.57 L 62.29 88.57 L 36.00 88.57 L 36.00 62.29 Z" fill="none" stroke="#e76f51" stroke-width="5.2" stroke-linecap="round" stroke-linejoin="round"/><path d="M 141.14 62.29 L 167.43 62.29 L 193.71 62.29 L 193.71 88.57 L 193.71 114.86 L 193.71 141.14 L 193.71 167.43 " fill="none" stroke="#e76f51" stroke-width="5.2" stroke-linecap="round" stroke-linejoin="round"/><path d="M 62.29 88.57 L 62.29 114.86 L 62.29 141.14 L 62.29 167.43 L 62.29 193.71 L 62.29 220.00 " fill="none" stroke="#e76f51" stroke-width="5.2" stroke-linecap="round" stroke-linejoin="round"/><circle cx="167.43" cy="167.43" r="3.6" fill="#edb183" stroke="#8a4f34" stroke-width="1.2"/><circle cx="193.71" cy="167.43" r="3.6" fill="#edb183" stroke="#8a4f34" stroke-width="1.2"/><circle cx="220.00" cy="167.43" r="3.6" fill="#edb183" stroke="#8a4f34" stroke-width="1.2"/><circle cx="220.00" cy="193.71" r="3.6" fill="#edb183" stroke="#8a4f34" stroke-width="1.2"/><circle cx="220.00" cy="220.00" r="3.6" fill="#edb183" stroke="#8a4f34" stroke-width="1.2"/><circle cx="193.71" cy="220.00" r="3.6" fill="#edb183" stroke="#8a4f34" stroke-width="1.2"/><circle cx="167.43" cy="220.00" r="3.6" fill="#edb183" stroke="#8a4f34" stroke-width="1.2"/><circle cx="167.43" cy="193.71" r="3.6" fill="#edb183" stroke="#8a4f34" stroke-width="1.2"/><circle cx="36.00" cy="36.00" r="3.6" fill="#edb183" stroke="#8a4f34" stroke-width="1.2"/><circle cx="62.29" cy="36.00" r="3.6" fill="#edb183" stroke="#8a4f34" stroke-width="1.2"/><circle cx="88.57" cy="36.00" r="3.6" fill="#edb183" stroke="#8a4f34" stroke-width="1.2"/><circle cx="88.57" cy="62.29" r="3.6" fill="#edb183" stroke="#8a4f34" stroke-width="1.2"/><circle cx="88.57" cy="88.57" r="3.6" fill="#edb183" stroke="#8a4f34" stroke-width="1.2"/><circle cx="62.29" cy="88.57" r="3.6" fill="#edb183" stroke="#8a4f34" stroke-width="1.2"/><circle cx="36.00" cy="88.57" r="3.6" fill="#edb183" stroke="#8a4f34" stroke-width="1.2"/><circle cx="36.00" cy="62.29" r="3.6" fill="#edb183" stroke="#8a4f34" stroke-width="1.2"/><circle cx="141.14" cy="62.29" r="3.6" fill="#edb183" stroke="#8a4f34" stroke-width="1.2"/><circle cx="167.43" cy="62.29" r="3.6" fill="#edb183" stroke="#8a4f34" stroke-width="1.2"/><circle cx="193.71" cy="62.29" r="3.6" fill="#edb183" stroke="#8a4f34" stroke-width="1.2"/><circle cx="193.71" cy="88.57" r="3.6" fill="#edb183" stroke="#8a4f34" stroke-width="1.2"/><circle cx="193.71" cy="114.86" r="3.6" fill="#edb183" stroke="#8a4f34" stroke-width="1.2"/><circle cx="193.71" cy="141.14" r="3.6" fill="#edb183" stroke="#8a4f34" stroke-width="1.2"/><circle cx="193.71" cy="167.43" r="3.6" fill="#edb183" stroke="#8a4f34" stroke-width="1.2"/><circle cx="62.29" cy="88.57" r="3.6" fill="#edb183" stroke="#8a4f34" stroke-width="1.2"/><circle cx="62.29" cy="114.86" r="3.6" fill="#edb183" stroke="#8a4f34" stroke-width="1.2"/><circle cx="62.29" cy="141.14" r="3.6" fill="#edb183" stroke="#8a4f34" stroke-width="1.2"/><circle cx="62.29" cy="167.43" r="3.6" fill="#edb183" stroke="#8a4f34" stroke-width="1.2"/><circle cx="62.29" cy="193.71" r="3.6" fill="#edb183" stroke="#8a4f34" stroke-width="1.2"/><circle cx="62.29" cy="220.00" r="3.6" fill="#edb183" stroke="#8a4f34" stroke-width="1.2"/><rect x="20" y="20" width="104" height="28" fill="#f9d8d1" rx="14"/><text x="30" y="39" font-size="15" font-family="Georgia, serif" font-weight="700" fill="#8b2e26">REJECTED</text><text x="20" y="286" font-size="14" font-family="Menlo, monospace" fill="#3f372d">mean 0.172  max 0.586</text><text x="20" y="306" font-size="14" font-family="Menlo, monospace" fill="#3f372d">f1 0.855  iou 0.747</text><text x="20" y="326" font-size="14" font-family="Menlo, monospace" fill="#3f372d">turn 0.500x  len 1.108x</text><text x="20" y="346" font-size="13" font-family="Menlo, monospace" fill="#5d5146">reasons: curved_source_blacklist, max_error</text></svg>