<svg xmlns="http://www.w3.org/2000/svg" viewBox="0 0 256 360"><rect width="256" height="360" fill="#f8f4eb" rx="18"/><rect x="18" y="18" width="220" height="220" fill="#fffdf9" stroke="#d8d1c4" stroke-width="2" rx="16"/><line x1="36.00" y1="36.00" x2="36.00" y2="220.00" stroke="#d8d1c4" stroke-width="1"/><line x1="36.00" y1="36.00" x2="220.00" y2="36.00" stroke="#d8d1c4" stroke-width="1"/><line x1="62.29" y1="36.00" x2="62.29" y2="220.00" stroke="#d8d1c4" stroke-width="1"/><line x1="36.00" y1="62.29" x2="220.00" y2="62.29" stroke="#d8d1c4" stroke-width="1"/><line x1="88.57" y1="36.00" x2="88.57" y2="220.00" stroke="#d8d1c4" stroke-width="1"/><line x1="36.00" y1="88.57" x2="220.00" y2="88.57" stroke="#d8d1c4" stroke-width="1"/><line x1="114.86" y1="36.00" x2="114.86" y2="220.00" stroke="#d8d1c4" stroke-width="1"/><line x1="36.00" y1="114.86" x2="220.00" y2="114.86" stroke="#d8d1c4" stroke-width="1"/><line x1="141.14" y1="36.00" x2="141.14" y2="220.00" stroke="#d8d1c4" stroke-width="1"/><line x1="36.00" y1="141.14" x2="220.00" y2="141.14" stroke="#d8d1c4" stroke-width="1"/><line x1="167.43" y1="36.00" x2="167.43" y2="220.00" stroke="#d8d1c4" stroke-width="1"/><line x1="36.00" y1="167.43" x2="220.00" y2="167.43" stroke="#d8d1c4" stroke-width="1"/><line x1="193.71" y1="36.00" x2="193.71" y2="220.00" stroke="#d8d1c4" stroke-width="1"/><line x1="36.00" y1="193.71" x2="220.00" y2="193.71" stroke="#d8d1c4" stroke-width="1"/><line x1="220.00" y1="36.00" x2="220.00" y2="220.00" stroke="#d8d1c4" stroke-width="1"/><line x1="36.00" y1="220.00" x2="220.00" y2="220.00" stroke="#d8d1c4" stroke-width="1"/><path d="M 94.05 189.33 L 94.05 56.44 L 216.71 36.00 L 216.71 168.89 " fill="none" stroke="#1b6f84" stroke-width="3.2" stroke-linecap="round" stroke-linejoin="round" opacity="0.45"/><path d="M 94.05 189.33 L 92.51 198.96 L 88.17 207.38 L 81.43 214.12 L 73.01 218.46 L 63.38 220.00 L 53.76 218.46 L 45.33 214.12 L 38.59 207.38 L 34.25 198.96 L 32.71 189.33 L 34.25 179.71 L 38.59 171.29 L 45.33 164.54 L 53.76 160.20 L 63.38 158.67 L 73.01 160.20 L 81.43 164.54 L 88.17 171.29 L 92.51 179.71 Z" fill="none" stroke="#1b6f84" stroke-width="3.2" stroke-linecap="round" stroke-linejoin="round" opacity="0.45"/><path d="M 216.71 168.89 L 215.18 178.51 L 210.84 186.94 L 204.10 193.68 L 195.67 198.02 L 186.05 199.56 L 176.42 198.02 L 168.00 193.68 L 161.26 186.94 L 156.92 178.51 L 155.38 168.89 L 156.92 159.26 L 161.26 150.84 L 168.00 144.10 L 176.42 139.76 L 186.05 138.22 L 195.67 139.76 L 204.10 144.10 L 210.84 150.84 L 215.18 159.26 Z" fill="none" stroke="#1b6f84" stroke-width="3.2" stroke-linecap="round" stroke-linejoin="round" opacity="0.45"/><path d="M 88.57 193.71 L 88.57 167.43 L 88.57 141.14 L 88.57 114.86 L 88.57 88.57 L 88.57 62.29 L 114.86 62.29 L 141.14 62.29 L 167.43 36.00 L 193.71 36.00 L 220.00 36.00 L 220.00 62.29 L 220.00 88.57 L 220.00 114.86 L 220.00 141.14 L 220.00 167.43 " fill="none" stroke="#e76f51" stroke-width="5.2" stroke-linecap="round" stroke-linejoin="round"/><path d="M 36.00 167.43 L 62.29 167.43 L 88.57 167.43 L 88.57 193.71 L 88.57 220.00 L 62.29 220.00 L 36.00 220.00 L 36.00 193.71 Z" fill="none" stroke="#e76f51" stroke-width="5.2" stroke-linecap="round" stroke-linejoin="round"/><path d="M 167.43 141.14 L 193.71 141.14 L 220.00 141.14 L 220.00 167.43 L 220.00 193.71 L 193.71 193.71 L 167.43 193.71 L 167.43 167.43 Z" fill="none" stroke="#e76f51" stroke-width="5.2" stroke-linecap="round" stroke-linejoin="round"/><circle cx="88.57" cy="193.71" r="3.6" fill="#edb183" stroke="#8a4f34" stroke-width="1.2"/><circle cx="88.57" cy="167.43" r="3.6" fill="#edb183" stroke="#8a4f34" stroke-width="1.2"/><circle cx="88.57" cy="141.14" r="3.6" fill="#edb183" stroke="#8a4f34" stroke-width="1.2"/><circle cx="88.57" cy="114.86" r="3.6" fill="#edb183" stroke="#8a4f34" stroke-width="1.2"/><circle cx="88.57" cy="88.57" r="3.6" fill="#edb183" stroke="#8a4f34" stroke-width="1.2"/><circle cx="88.57" cy="62.29" r="3.6" fill="#edb183" stroke="#8a4f34" stroke-width="1.2"/><circle cx="114.86" cy="62.29" r="3.6" fill="#edb183" stroke="#8a4f34" stroke-width="1.2"/><circle cx="141.14" cy="62.29" r="3.6" fill="#edb183" stroke="#8a4f34" stroke-width="1.2"/><circle cx="167.43" cy="36.00" r="3.6" fill="#edb183" stroke="#8a4f34" stroke-width="1.2"/><circle cx="193.71" cy="36.00" r="3.6" fill="#edb183" stroke="#8a4f34" stroke-width="1.2"/><circle cx="220.00" cy="36.00" r="3.6" fill="#edb183" stroke="#8a4f34" stroke-width="1.2"/><circle cx="220.00" cy="62.29" r="3.6" fill="#edb183" stroke="#8a4f34" stroke-width="1.2"/><circle cx="220.00" cy="88.57" r="3.6" fill="#edb183" stroke="#8a4f34" stroke-width="1.2"/><circle cx="220.00" cy="114.86" r="3.6" fill="#edb183" stroke="#8a4f34" stroke-width="1.2"/><circle cx="220.00" cy="141.14" r="3.6" fill="#edb183" stroke="#8a4f34" stroke-width="1.2"/><circle cx="220.00" cy="167.43" r="3.6" fill="#edb183" stroke="#8a4f34" stroke-width="1.2"/><circle cx="36.00" cy="167.43" r="3.6" fill="#edb183" stroke="#8a4f34" stroke-width="1.2"/><circle cx="62.29" cy="167.43" r="3.6" fill="#edb183" stroke="#8a4f34" stroke-width="1.2"/><circle cx="88.57" cy="167.43" r="3.6" fill="#edb183" stroke="#8a4f34" stroke-width="1.2"/><circle cx="88.57" cy="193.71" r="3.6" fill="#edb183" stroke="#8a4f34" stroke-width="1.2"/><circle cx="88.57" cy="220.00" r="3.6" fill="#edb183" stroke="#8a4f34" stroke-width="1.2"/><circle cx="62.29" cy="220.00" r="3.6" fill="#edb183" stroke="#8a4f34" stroke-width="1.2"/><circle cx="36.00" cy="220.00" r="3.6" fill="#edb183" stroke="#8a4f34" stroke-width="1.2"/><circle cx="36.00" cy="193.71" r="3.6" fill="#edb183" stroke="#8a4f34" stroke-width="1.2"/><circle cx="167.43" cy="141.14" r="3.6" fill="#edb183" stroke="#8a4f34" stroke-width="1.2"/><circle cx="193.71" cy="141.14" r="3.6" fill="#edb183" stroke="#8a4f34" stroke-width="1.2"/><circle cx="220.00" cy="141.14" r="3.6" fill="#edb183" stroke="#8a4f34" stroke-width="1.2"/><circle cx="220.00" cy="167.43" r="3.6" fill="#edb183" stroke="#8a4f34" stroke-width="1.2"/><circle cx="220.00" cy="193.71" r="3.6" fill="#edb183" stroke="#8a4f34" stroke-width="1.2"/><circle cx="193.71" cy="193.71" r="3.6" fill="#edb183" stroke="#8a4f34" stroke-width="1.2"/><circle cx="167.43" cy="193.71" r="3.6" fill="#edb183" stroke="#8a4f34" stroke-width="1.2"/><circle cx="167.43" cy="167.43" r="3.6" fill="#edb183" stroke="#8a4f34" stroke-width="1.2"/><rect x="20" y="20" width="104" height="28" fill="#f9d8d1" rx="14"/><text x="30" y="39" font-size="15" font-family="Georgia, serif" font-weight="700" fill="#8b2e26">REJECTED</text><text x="20" y="286" font-size="14" font-family="Menlo, monospace" fill="#3f372d">mean 0.176  max 0.514</text><text x="20" y="306" font-size="14" font-family="Menlo, monospace" fill="#3f372d">f1 0.844  iou 0.730</text><text x="20" y="326" font-size="14" font-family="Menlo, monospace" fill="#3f372d">turn 0.667x  len 1.067x</text><text x="20" y="346" font-size="13" font-family="Menlo, monospace" fill="#5d5146">reasons: curved_source_blacklist, max_error</text></svg>