<svg xmlns="http://www.w3.org/2000/svg" viewBox="0 0 256 360"><rect width="256" height="360" fill="#f8f4eb" rx="18"/><rect x="18" y="18" width="220" height="220" fill="#fffdf9" stroke="#d8d1c4" stroke-width="2" rx="16"/><line x1="36.00" y1="36.00" x2="36.00" y2="220.00" stroke="#d8d1c4" stroke-width="1"/><line x1="36.00" y1="36.00" x2="220.00" y2="36.00" stroke="#d8d1c4" stroke-width="1"/><line x1="62.29" y1="36.00" x2="62.29" y2="220.00" stroke="#d8d1c4" stroke-width="1"/><line x1="36.00" y1="62.29" x2="220.00" y2="62.29" stroke="#d8d1c4" stroke-width="1"/><line x1="88.57" y1="36.00" x2="88.57" y2="220.00" stroke="#d8d1c4" stroke-width="1"/><line x1="36.00" y1="88.57" x2="220.00" y2="88.57" stroke="#d8d1c4" stroke-width="1"/><line x1="114.86" y1="36.00" x2="114.86" y2="220.00" stroke="#d8d1c4" stroke-width="1"/><line x1="36.00" y1="114.86" x2="220.00" y2="114.86" stroke="#d8d1c4" stroke-width="1"/><line x1="141.14" y1="36.00" x2="141.14" y2="220.00" stroke="#d8d1c4" stroke-width="1"/><line x1="36.00" y1="141.14" x2="220.00" y2="141.14" stroke="#d8d1c4" stroke-width="1"/><line x1="167.43" y1="36.00" x2="167.43" y2="220.00" stroke="#d8d1c4" stroke-width="1"/><line x1="36.00" y1="167.43" x2="220.00" y2="167.43" stroke="#d8d1c4" stroke-width="1"/><line x1="193.71" y1="36.00" x2="193.71" y2="220.00" stroke="#d8d1c4" stroke-width="1"/><line x1="36.00" y1="193.71" x2="220.00" y2="193.71" stroke="#d8d1c4" stroke-width="1"/><line x1="220.00" y1="36.00" x2="220.00" y2="220.00" stroke="#d8d1c4" stroke-width="1"/><line x1="36.00" y1="220.00" x2="220.00" y2="220.00" stroke="#d8d1c4" stroke-width="1"/><path d="M 82.00 36.00 L 174.00 36.00 L 181.09 37.41 L 187.01 41.39 L 190.99 47.31 L 192.40 54.40 L 192.40 201.60 L 190.99 208.69 L 187.01 214.61 L 181.09 218.59 L 174.00 220.00 L 82.00 220.00 L 74.91 218.59 L 68.99 214.61 L 65.01 208.69 L 63.60 201.60 L 63.60 54.40 L 65.01 47.31 L 68.99 41.39 L 74.91 37.41 Z" fill="none" stroke="#1b6f84" stroke-width="3.2" stroke-linecap="round" stroke-linejoin="round" opacity="0.45"/><path d="M 128.00 183.20 L 128.09 183.20 " fill="none" stroke="#1b6f84" stroke-width="3.2" stroke-linecap="round" stroke-linejoin="round" opacity="0.45"/><path d="M 62.29 36.00 L 88.57 36.00 L 114.86 36.00 L 141.14 36.00 L 167.43 36.00 L 193.71 36.00 L 193.71 62.29 L 193.71 88.57 L 193.71 114.86 L 193.71 141.14 L 193.71 167.43 L 193.71 193.71 L 193.71 220.00 L 167.43 220.00 L 141.14 220.00 L 114.86 220.00 L 88.57 220.00 L 62.29 220.00 L 62.29 193.71 L 62.29 167.43 L 62.29 141.14 L 62.29 114.86 L 62.29 88.57 L 62.29 62.29 Z" fill="none" stroke="#e76f51" stroke-width="5.2" stroke-linecap="round" stroke-linejoin="round"/><path d="M 114.86 193.71 L 141.14 193.71 " fill="none" stroke="#e76f51" stroke-width="5.2" stroke-linecap="round" stroke-linejoin="round"/><circle cx="62.29" cy="36.00" r="3.6" fill="#edb183" stroke="#8a4f34" stroke-width="1.2"/><circle cx="88.57" cy="36.00" r="3.6" fill="#edb183" stroke="#8a4f34" stroke-width="1.2"/><circle cx="114.86" cy="36.00" r="3.6" fill="#edb183" stroke="#8a4f34" stroke-width="1.2"/><circle cx="141.14" cy="36.00" r="3.6" fill="#edb183" stroke="#8a4f34" stroke-width="1.2"/><circle cx="167.43" cy="36.00" r="3.6" fill="#edb183" stroke="#8a4f34" stroke-width="1.2"/><circle cx="193.71" cy="36.00" r="3.6" fill="#edb183" stroke="#8a4f34" stroke-width="1.2"/><circle cx="193.71" cy="62.29" r="3.6" fill="#edb183" stroke="#8a4f34" stroke-width="1.2"/><circle cx="193.71" cy="88.57" r="3.6" fill="#edb183" stroke="#8a4f34" stroke-width="1.2"/><circle cx="193.71" cy="114.86" r="3.6" fill="#edb183" stroke="#8a4f34" stroke-width="1.2"/><circle cx="193.71" cy="141.14" r="3.6" fill="#edb183" stroke="#8a4f34" stroke-width="1.2"/><circle cx="193.71" cy="167.43" r="3.6" fill="#edb183" stroke="#8a4f34" stroke-width="1.2"/><circle cx="193.71" cy="193.71" r="3.6" fill="#edb183" stroke="#8a4f34" stroke-width="1.2"/><circle cx="193.71" cy="220.00" r="3.6" fill="#edb183" stroke="#8a4f34" stroke-width="1.2"/><circle cx="167.43" cy="220.00" r="3.6" fill="#edb183" stroke="#8a4f34" stroke-width="1.2"/><circle cx="141.14" cy="220.00" r="3.6" fill="#edb183" stroke="#8a4f34" stroke-width="1.2"/><circle cx="114.86" cy="220.00" r="3.6" fill="#edb183" stroke="#8a4f34" stroke-width="1.2"/><circle cx="88.57" cy="220.00" r="3.6" fill="#edb183" stroke="#8a4f34" stroke-width="1.2"/><circle cx="62.29" cy="220.00" r="3.6" fill="#edb183" stroke="#8a4f34" stroke-width="1.2"/><circle cx="62.29" cy="193.71" r="3.6" fill="#edb183" stroke="#8a4f34" stroke-width="1.2"/><circle cx="62.29" cy="167.43" r="3.6" fill="#edb183" stroke="#8a4f34" stroke-width="1.2"/><circle cx="62.29" cy="141.14" r="3.6" fill="#edb183" stroke="#8a4f34" stroke-width="1.2"/><circle cx="62.29" cy="114.86" r="3.6" fill="#edb183" stroke="#8a4f34" stroke-width="1.2"/><circle cx="62.29" cy="88.57" r="3.6" fill="#edb183" stroke="#8a4f34" stroke-width="1.2"/><circle cx="62.29" cy="62.29" r="3.6" fill="#edb183" stroke="#8a4f34" stroke-width="1.2"/><circle cx="114.86" cy="193.71" r="3.6" fill="#edb183" stroke="#8a4f34" stroke-width="1.2"/><circle cx="141.14" cy="193.71" r="3.6" fill="#edb183" stroke="#8a4f34" stroke-width="1.2"/><rect x="20" y="20" width="104" height="28" fill="#f9d8d1" rx="14"/><text x="30" y="39" font-size="15" font-family="Georgia, serif" font-weight="700" fill="#8b2e26">REJECTED</text><text x="20" y="286" font-size="14" font-family="Menlo, monospace" fill="#3f372d">mean 0.061  max 0.640</text><text x="20" y="306" font-size="14" font-family="Menlo, monospace" fill="#3f372d">f1 0.910  iou 0.835</text><text x="20" y="326" font-size="14" font-family="Menlo, monospace" fill="#3f372d">turn 0.500x  len 1.107x</text><text x="20" y="346" font-size="13" font-family="Menlo, monospace" fill="#5d5146">reasons: curved_source_blacklist, max_error</text></svg>