<svg xmlns="http://www.w3.org/2000/svg" viewBox="0 0 256 360"><rect width="256" height="360" fill="#f8f4eb" rx="18"/><rect x="18" y="18" width="220" height="220" fill="#fffdf9" stroke="#d8d1c4" stroke-width="2" rx="16"/><line x1="36.00" y1="36.00" x2="36.00" y2="220.00" stroke="#d8d1c4" stroke-width="1"/><line x1="36.00" y1="36.00" x2="220.00" y2="36.00" stroke="#d8d1c4" stroke-width="1"/><line x1="62.29" y1="36.00" x2="62.29" y2="220.00" stroke="#d8d1c4" stroke-width="1"/><line x1="36.00" y1="62.29" x2="220.00" y2="62.29" stroke="#d8d1c4" stroke-width="1"/><line x1="88.57" y1="36.00" x2="88.57" y2="220.00" stroke="#d8d1c4" stroke-width="1"/><line x1="36.00" y1="88.57" x2="220.00" y2="88.57" stroke="#d8d1c4" stroke-width="1"/><line x1="114.86" y1="36.00" x2="114.86" y2="220.00" stroke="#d8d1c4" stroke-width="1"/><line x1="36.00" y1="114.86" x2="220.00" y2="114.86" stroke="#d8d1c4" stroke-width="1"/><line x1="141.14" y1="36.00" x2="141.14" y2="220.00" stroke="#d8d1c4" stroke-width="1"/><line x1="36.00" y1="141.14" x2="220.00" y2="141.14" stroke="#d8d1c4" stroke-width="1"/><line x1="167.43" y1="36.00" x2="167.43" y2="220.00" stroke="#d8d1c4" stroke-width="1"/><line x1="36.00" y1="167.43" x2="220.00" y2="167.43" stroke="#d8d1c4" stroke-width="1"/><line x1="193.71" y1="36.00" x2="193.71" y2="220.00" stroke="#d8d1c4" stroke-width="1"/><line x1="36.00" y1="193.71" x2="220.00" y2="193.71" stroke="#d8d1c4" stroke-width="1"/><line x1="220.00" y1="36.00" x2="220.00" y2="220.00" stroke="#d8d1c4" stroke-width="1"/><line x1="36.00" y1="220.00" x2="220.00" y2="220.00" stroke="#d8d1c4" stroke-width="1"/><path d="M 216.75 169.19 L 219.57 159.24 L 219.87 149.12 L 217.72 139.23 L 213.11 129.97 L 206.37 122.12 L 198.10 116.29 L 188.66 112.63 L 178.39 111.36 L 167.91 111.36 L 163.11 98.34 L 155.99 86.94 L 146.53 77.04 L 135.25 69.29 L 122.85 64.08 L 109.24 61.43 " fill="none" stroke="#1b6f84" stroke-width="3.2" stroke-linecap="round" stroke-linejoin="round" opacity="0.45"/><path d="M 70.21 69.75 L 59.60 77.03 L 50.90 85.82 L 43.89 96.29 L 38.99 107.80 L 36.31 120.10 L 36.00 132.47 L 38.10 145.16 L 42.60 157.22 L 49.02 167.78 L 57.48 177.12 L 67.46 184.66 L 78.75 190.25 L 90.67 193.54 L 103.50 194.57 L 178.39 194.57 L 185.57 193.94 L 192.54 192.08 " fill="none" stroke="#1b6f84" stroke-width="3.2" stroke-linecap="round" stroke-linejoin="round" opacity="0.45"/><path d="M 36.92 36.46 L 220.00 219.54 " fill="none" stroke="#1b6f84" stroke-width="3.2" stroke-linecap="round" stroke-linejoin="round" opacity="0.45"/><path d="M 220.00 167.43 L 220.00 141.14 L 193.71 114.86 L 167.43 114.86 L 167.43 88.57 L 141.14 88.57 L 141.14 62.29 L 114.86 62.29 " fill="none" stroke="#e76f51" stroke-width="5.2" stroke-linecap="round" stroke-linejoin="round"/><path d="M 62.29 62.29 L 62.29 88.57 L 36.00 88.57 L 36.00 114.86 L 36.00 141.14 L 36.00 167.43 L 62.29 167.43 L 62.29 193.71 L 88.57 193.71 L 114.86 193.71 L 141.14 193.71 L 167.43 193.71 L 193.71 193.71 " fill="none" stroke="#e76f51" stroke-width="5.2" stroke-linecap="round" stroke-linejoin="round"/><path d="M 36.00 36.00 L 62.29 62.29 L 88.57 88.57 L 114.86 114.86 L 141.14 141.14 L 167.43 167.43 L 193.71 193.71 L 220.00 220.00 " fill="none" stroke="#e76f51" stroke-width="5.2" stroke-linecap="round" stroke-linejoin="round"/><circle cx="220.00" cy="167.43" r="3.6" fill="#edb183" stroke="#8a4f34" stroke-width="1.2"/><circle cx="220.00" cy="141.14" r="3.6" fill="#edb183" stroke="#8a4f34" stroke-width="1.2"/><circle cx="193.71" cy="114.86" r="3.6" fill="#edb183" stroke="#8a4f34" stroke-width="1.2"/><circle cx="167.43" cy="114.86" r="3.6" fill="#edb183" stroke="#8a4f34" stroke-width="1.2"/><circle cx="167.43" cy="88.57" r="3.6" fill="#edb183" stroke="#8a4f34" stroke-width="1.2"/><circle cx="141.14" cy="88.57" r="3.6" fill="#edb183" stroke="#8a4f34" stroke-width="1.2"/><circle cx="141.14" cy="62.29" r="3.6" fill="#edb183" stroke="#8a4f34" stroke-width="1.2"/><circle cx="114.86" cy="62.29" r="3.6" fill="#edb183" stroke="#8a4f34" stroke-width="1.2"/><circle cx="62.29" cy="62.29" r="3.6" fill="#edb183" stroke="#8a4f34" stroke-width="1.2"/><circle cx="62.29" cy="88.57" r="3.6" fill="#edb183" stroke="#8a4f34" stroke-width="1.2"/><circle cx="36.00" cy="88.57" r="3.6" fill="#edb183" stroke="#8a4f34" stroke-width="1.2"/><circle cx="36.00" cy="114.86" r="3.6" fill="#edb183" stroke="#8a4f34" stroke-width="1.2"/><circle cx="36.00" cy="141.14" r="3.6" fill="#edb183" stroke="#8a4f34" stroke-width="1.2"/><circle cx="36.00" cy="167.43" r="3.6" fill="#edb183" stroke="#8a4f34" stroke-width="1.2"/><circle cx="62.29" cy="167.43" r="3.6" fill="#edb183" stroke="#8a4f34" stroke-width="1.2"/><circle cx="62.29" cy="193.71" r="3.6" fill="#edb183" stroke="#8a4f34" stroke-width="1.2"/><circle cx="88.57" cy="193.71" r="3.6" fill="#edb183" stroke="#8a4f34" stroke-width="1.2"/><circle cx="114.86" cy="193.71" r="3.6" fill="#edb183" stroke="#8a4f34" stroke-width="1.2"/><circle cx="141.14" cy="193.71" r="3.6" fill="#edb183" stroke="#8a4f34" stroke-width="1.2"/><circle cx="167.43" cy="193.71" r="3.6" fill="#edb183" stroke="#8a4f34" stroke-width="1.2"/><circle cx="193.71" cy="193.71" r="3.6" fill="#edb183" stroke="#8a4f34" stroke-width="1.2"/><circle cx="36.00" cy="36.00" r="3.6" fill="#edb183" stroke="#8a4f34" stroke-width="1.2"/><circle cx="62.29" cy="62.29" r="3.6" fill="#edb183" stroke="#8a4f34" stroke-width="1.2"/><circle cx="88.57" cy="88.57" r="3.6" fill="#edb183" stroke="#8a4f34" stroke-width="1.2"/><circle cx="114.86" cy="114.86" r="3.6" fill="#edb183" stroke="#8a4f34" stroke-width="1.2"/><circle cx="141.14" cy="141.14" r="3.6" fill="#edb183" stroke="#8a4f34" stroke-width="1.2"/><circle cx="167.43" cy="167.43" r="3.6" fill="#edb183" stroke="#8a4f34" stroke-width="1.2"/><circle cx="193.71" cy="193.71" r="3.6" fill="#edb183" stroke="#8a4f34" stroke-width="1.2"/><circle cx="220.00" cy="220.00" r="3.6" fill="#edb183" stroke="#8a4f34" stroke-width="1.2"/><rect x="20" y="20" width="104" height="28" fill="#d9f2ea" rx="14"/><text x="30" y="39" font-size="15" font-family="Georgia, serif" font-weight="700" fill="#1d4d3f">ACCEPTED</text><text x="20" y="286" font-size="14" font-family="Menlo, monospace" fill="#3f372d">mean 0.077  max 0.451</text><text x="20" y="306" font-size="14" font-family="Menlo, monospace" fill="#3f372d">f1 0.926  iou 0.862</text><text x="20" y="326" font-size="14" font-family="Menlo, monospace" fill="#3f372d">turn 1.375x  len 1.102x</text><text x="20" y="346" font-size="13" font-family="Menlo, monospace" fill="#5d5146">reasons: none</text></svg>