<svg xmlns="http://www.w3.org/2000/svg" viewBox="0 0 256 360"><rect width="256" height="360" fill="#f8f4eb" rx="18"/><rect x="18" y="18" width="220" height="220" fill="#fffdf9" stroke="#d8d1c4" stroke-width="2" rx="16"/><line x1="36.00" y1="36.00" x2="36.00" y2="220.00" stroke="#d8d1c4" stroke-width="1"/><line x1="36.00" y1="36.00" x2="220.00" y2="36.00" stroke="#d8d1c4" stroke-width="1"/><line x1="62.29" y1="36.00" x2="62.29" y2="220.00" stroke="#d8d1c4" stroke-width="1"/><line x1="36.00" y1="62.29" x2="220.00" y2="62.29" stroke="#d8d1c4" stroke-width="1"/><line x1="88.57" y1="36.00" x2="88.57" y2="220.00" stroke="#d8d1c4" stroke-width="1"/><line x1="36.00" y1="88.57" x2="220.00" y2="88.57" stroke="#d8d1c4" stroke-width="1"/><line x1="114.86" y1="36.00" x2="114.86" y2="220.00" stroke="#d8d1c4" stroke-width="1"/><line x1="36.00" y1="114.86" x2="220.00" y2="114.86" stroke="#d8d1c4" stroke-width="1"/><line x1="141.14" y1="36.00" x2="141.14" y2="220.00" stroke="#d8d1c4" stroke-width="1"/><line x1="36.00" y1="141.14" x2="220.00" y2="141.14" stroke="#d8d1c4" stroke-width="1"/><line x1="167.43" y1="36.00" x2="167.43" y2="220.00" stroke="#d8d1c4" stroke-width="1"/><line x1="36.00" y1="167.43" x2="220.00" y2="167.43" stroke="#d8d1c4" stroke-width="1"/><line x1="193.71" y1="36.00" x2="193.71" y2="220.00" stroke="#d8d1c4" stroke-width="1"/><line x1="36.00" y1="193.71" x2="220.00" y2="193.71" stroke="#d8d1c4" stroke-width="1"/><line x1="220.00" y1="36.00" x2="220.00" y2="220.00" stroke="#d8d1c4" stroke-width="1"/><line x1="36.00" y1="220.00" x2="220.00" y2="220.00" stroke="#d8d1c4" stroke-width="1"/><path d="M 115.02 58.68 L 51.00 58.68 L 43.96 60.08 L 38.07 64.04 L 34.12 69.93 L 32.71 76.97 L 32.71 205.00 L 34.12 212.04 L 38.07 217.93 L 43.96 221.88 L 51.00 223.29 L 179.03 223.29 L 186.07 221.88 L 191.96 217.93 L 195.92 212.04 L 197.32 205.00 L 197.32 140.98 " fill="none" stroke="#1b6f84" stroke-width="3.2" stroke-linecap="round" stroke-linejoin="round" opacity="0.45"/><path d="M 183.60 44.97 L 189.93 40.73 L 197.32 39.29 L 204.70 40.73 L 211.03 44.97 L 215.27 51.30 L 216.71 58.68 L 215.27 66.07 L 211.03 72.40 L 124.16 159.27 L 87.58 168.42 L 96.73 131.84 Z" fill="none" stroke="#1b6f84" stroke-width="3.2" stroke-linecap="round" stroke-linejoin="round" opacity="0.45"/><path d="M 114.86 62.29 L 88.57 62.29 L 62.29 62.29 L 36.00 62.29 L 36.00 88.57 L 36.00 114.86 L 36.00 141.14 L 36.00 167.43 L 36.00 193.71 L 36.00 220.00 L 62.29 220.00 L 88.57 220.00 L 114.86 220.00 L 141.14 220.00 L 167.43 220.00 L 193.71 220.00 L 193.71 193.71 L 193.71 167.43 L 193.71 141.14 " fill="none" stroke="#e76f51" stroke-width="5.2" stroke-linecap="round" stroke-linejoin="round"/><path d="M 88.57 141.14 L 114.86 114.86 L 141.14 88.57 L 167.43 62.29 L 193.71 36.00 L 220.00 36.00 L 220.00 62.29 L 193.71 88.57 L 167.43 114.86 L 141.14 141.14 L 114.86 167.43 L 88.57 167.43 Z" fill="none" stroke="#e76f51" stroke-width="5.2" stroke-linecap="round" stroke-linejoin="round"/><circle cx="114.86" cy="62.29" r="3.6" fill="#edb183" stroke="#8a4f34" stroke-width="1.2"/><circle cx="88.57" cy="62.29" r="3.6" fill="#edb183" stroke="#8a4f34" stroke-width="1.2"/><circle cx="62.29" cy="62.29" r="3.6" fill="#edb183" stroke="#8a4f34" stroke-width="1.2"/><circle cx="36.00" cy="62.29" r="3.6" fill="#edb183" stroke="#8a4f34" stroke-width="1.2"/><circle cx="36.00" cy="88.57" r="3.6" fill="#edb183" stroke="#8a4f34" stroke-width="1.2"/><circle cx="36.00" cy="114.86" r="3.6" fill="#edb183" stroke="#8a4f34" stroke-width="1.2"/><circle cx="36.00" cy="141.14" r="3.6" fill="#edb183" stroke="#8a4f34" stroke-width="1.2"/><circle cx="36.00" cy="167.43" r="3.6" fill="#edb183" stroke="#8a4f34" stroke-width="1.2"/><circle cx="36.00" cy="193.71" r="3.6" fill="#edb183" stroke="#8a4f34" stroke-width="1.2"/><circle cx="36.00" cy="220.00" r="3.6" fill="#edb183" stroke="#8a4f34" stroke-width="1.2"/><circle cx="62.29" cy="220.00" r="3.6" fill="#edb183" stroke="#8a4f34" stroke-width="1.2"/><circle cx="88.57" cy="220.00" r="3.6" fill="#edb183" stroke="#8a4f34" stroke-width="1.2"/><circle cx="114.86" cy="220.00" r="3.6" fill="#edb183" stroke="#8a4f34" stroke-width="1.2"/><circle cx="141.14" cy="220.00" r="3.6" fill="#edb183" stroke="#8a4f34" stroke-width="1.2"/><circle cx="167.43" cy="220.00" r="3.6" fill="#edb183" stroke="#8a4f34" stroke-width="1.2"/><circle cx="193.71" cy="220.00" r="3.6" fill="#edb183" stroke="#8a4f34" stroke-width="1.2"/><circle cx="193.71" cy="193.71" r="3.6" fill="#edb183" stroke="#8a4f34" stroke-width="1.2"/><circle cx="193.71" cy="167.43" r="3.6" fill="#edb183" stroke="#8a4f34" stroke-width="1.2"/><circle cx="193.71" cy="141.14" r="3.6" fill="#edb183" stroke="#8a4f34" stroke-width="1.2"/><circle cx="88.57" cy="141.14" r="3.6" fill="#edb183" stroke="#8a4f34" stroke-width="1.2"/><circle cx="114.86" cy="114.86" r="3.6" fill="#edb183" stroke="#8a4f34" stroke-width="1.2"/><circle cx="141.14" cy="88.57" r="3.6" fill="#edb183" stroke="#8a4f34" stroke-width="1.2"/><circle cx="167.43" cy="62.29" r="3.6" fill="#edb183" stroke="#8a4f34" stroke-width="1.2"/><circle cx="193.71" cy="36.00" r="3.6" fill="#edb183" stroke="#8a4f34" stroke-width="1.2"/><circle cx="220.00" cy="36.00" r="3.6" fill="#edb183" stroke="#8a4f34" stroke-width="1.2"/><circle cx="220.00" cy="62.29" r="3.6" fill="#edb183" stroke="#8a4f34" stroke-width="1.2"/><circle cx="193.71" cy="88.57" r="3.6" fill="#edb183" stroke="#8a4f34" stroke-width="1.2"/><circle cx="167.43" cy="114.86" r="3.6" fill="#edb183" stroke="#8a4f34" stroke-width="1.2"/><circle cx="141.14" cy="141.14" r="3.6" fill="#edb183" stroke="#8a4f34" stroke-width="1.2"/><circle cx="114.86" cy="167.43" r="3.6" fill="#edb183" stroke="#8a4f34" stroke-width="1.2"/><circle cx="88.57" cy="167.43" r="3.6" fill="#edb183" stroke="#8a4f34" stroke-width="1.2"/><rect x="20" y="20" width="104" height="28" fill="#d9f2ea" rx="14"/><text x="30" y="39" font-size="15" font-family="Georgia, serif" font-weight="700" fill="#1d4d3f">ACCEPTED</text><text x="20" y="286" font-size="14" font-family="Menlo, monospace" fill="#3f372d">mean 0.094  max 0.482</text><text x="20" y="306" font-size="14" font-family="Menlo, monospace" fill="#3f372d">f1 0.922  iou 0.856</text><text x="20" y="326" font-size="14" font-family="Menlo, monospace" fill="#3f372d">turn 0.692x  len 1.028x</text><text x="20" y="346" font-size="13" font-family="Menlo, monospace" fill="#5d5146">reasons: none</text></svg>