<svg xmlns="http://www.w3.org/2000/svg" viewBox="0 0 128 128"><rect width="128" height="128" rx="18" fill="#fdf6e3"/><rect x="6" y="6" width="116" height="116" rx="14" fill="#fffaf0" stroke="#e9dcc3" stroke-width="2"/><path d="M 14.00 26.50 L 26.50 26.50 L 39.00 26.50 L 51.50 26.50 L 64.00 26.50 L 76.50 26.50 L 89.00 26.50 L 101.50 26.50 L 114.00 26.50 L 114.00 39.00 L 114.00 51.50 L 114.00 64.00 L 114.00 76.50 L 114.00 89.00 L 114.00 101.50 L 114.00 114.00 L 101.50 114.00 L 89.00 114.00 L 76.50 114.00 L 64.00 114.00 L 51.50 114.00 L 39.00 114.00 L 26.50 114.00 L 14.00 114.00" fill="none" stroke="#264653" stroke-width="5" stroke-linecap="round" stroke-linejoin="round" opacity="0.65"/><path d="M 14.00 114.00 L 14.00 101.50 L 14.00 89.00 L 14.00 76.50 L 14.00 64.00 L 14.00 51.50 L 14.00 39.00" fill="none" stroke="#e76f51" stroke-width="5" stroke-linecap="round" stroke-linejoin="round"/><path d="M 64.00 51.50 L 64.00 39.00 L 51.50 39.00 L 51.50 26.50 L 64.00 26.50 L 76.50 26.50 L 76.50 14.00 L 64.00 14.00 L 51.50 14.00 L 51.50 26.50" fill="none" stroke="#e76f51" stroke-width="5" stroke-linecap="round" stroke-linejoin="round"/></svg>