<svg xmlns="http://www.w3.org/2000/svg" viewBox="0 0 128 128"><rect width="128" height="128" rx="18" fill="#fdf6e3"/><rect x="6" y="6" width="116" height="116" rx="14" fill="#fffaf0" stroke="#e9dcc3" stroke-width="2"/><path d="M 14.00 44.00 L 14.00 54.00 L 14.00 64.00 L 14.00 74.00 L 14.00 84.00 L 24.00 84.00 L 34.00 84.00" fill="none" stroke="#264653" stroke-width="5" stroke-linecap="round" stroke-linejoin="round" opacity="0.65"/><path d="M 34.00 84.00 L 44.00 94.00 L 54.00 104.00 L 54.00 94.00 L 54.00 84.00 L 54.00 74.00 L 54.00 64.00 L 54.00 54.00 L 54.00 44.00 L 54.00 34.00 L 54.00 24.00" fill="none" stroke="#e76f51" stroke-width="5" stroke-linecap="round" stroke-linejoin="round"/><path d="M 44.00 64.00 L 54.00 64.00 L 64.00 64.00 L 74.00 64.00" fill="none" stroke="#e76f51" stroke-width="5" stroke-linecap="round" stroke-linejoin="round"/><path d="M 54.00 44.00 L 44.00 44.00 L 34.00 44.00" fill="none" stroke="#e76f51" stroke-width="5" stroke-linecap="round" stroke-linejoin="round"/><path d="M 114.00 84.00 L 104.00 84.00 L 94.00 84.00" fill="none" stroke="#e76f51" stroke-width="5" stroke-linecap="round" stroke-linejoin="round"/></svg>