<svg xmlns="http://www.w3.org/2000/svg" viewBox="0 0 128 128"><rect width="128" height="128" rx="18" fill="#fdf6e3"/><rect x="6" y="6" width="116" height="116" rx="14" fill="#fffaf0" stroke="#e9dcc3" stroke-width="2"/><path d="M 19.56 36.22 L 30.67 36.22 L 41.78 36.22 L 52.89 36.22 L 52.89 47.33 L 52.89 58.44 L 52.89 69.56 L 41.78 69.56 L 30.67 69.56 L 19.56 69.56" fill="none" stroke="#264653" stroke-width="5" stroke-linecap="round" stroke-linejoin="round" opacity="0.65"/><path d="M 19.56 69.56 L 19.56 58.44 L 19.56 47.33 L 19.56 36.22 L 19.56 25.11 L 19.56 14.00 L 30.67 14.00 L 41.78 14.00 L 52.89 14.00 L 64.00 14.00 L 75.11 14.00 L 75.11 25.11 L 75.11 36.22 L 75.11 47.33 L 75.11 58.44 L 75.11 69.56 L 64.00 69.56 L 52.89 69.56 L 52.89 58.44 L 52.89 47.33 L 64.00 47.33 L 75.11 47.33 L 86.22 47.33 L 97.33 47.33 L 108.44 47.33 L 108.44 58.44 L 108.44 69.56 L 108.44 80.67 L 108.44 91.78 L 108.44 102.89" fill="none" stroke="#e76f51" stroke-width="5" stroke-linecap="round" stroke-linejoin="round"/><path d="M 86.22 114.00 L 75.11 114.00 L 75.11 102.89 L 86.22 91.78 L 75.11 91.78 L 64.00 91.78 L 75.11 80.67 L 64.00 80.67" fill="none" stroke="#e76f51" stroke-width="5" stroke-linecap="round" stroke-linejoin="round"/></svg>