<svg xmlns="http://www.w3.org/2000/svg" viewBox="0 0 256 360"><rect width="256" height="360" fill="#f8f4eb" rx="18"/><rect x="18" y="18" width="220" height="220" fill="#fffdf9" stroke="#d8d1c4" stroke-width="2" rx="16"/><line x1="36.00" y1="36.00" x2="36.00" y2="220.00" stroke="#d8d1c4" stroke-width="1"/><line x1="36.00" y1="36.00" x2="220.00" y2="36.00" stroke="#d8d1c4" stroke-width="1"/><line x1="59.00" y1="36.00" x2="59.00" y2="220.00" stroke="#d8d1c4" stroke-width="1"/><line x1="36.00" y1="59.00" x2="220.00" y2="59.00" stroke="#d8d1c4" stroke-width="1"/><line x1="82.00" y1="36.00" x2="82.00" y2="220.00" stroke="#d8d1c4" stroke-width="1"/><line x1="36.00" y1="82.00" x2="220.00" y2="82.00" stroke="#d8d1c4" stroke-width="1"/><line x1="105.00" y1="36.00" x2="105.00" y2="220.00" stroke="#d8d1c4" stroke-width="1"/><line x1="36.00" y1="105.00" x2="220.00" y2="105.00" stroke="#d8d1c4" stroke-width="1"/><line x1="128.00" y1="36.00" x2="128.00" y2="220.00" stroke="#d8d1c4" stroke-width="1"/><line x1="36.00" y1="128.00" x2="220.00" y2="128.00" stroke="#d8d1c4" stroke-width="1"/><line x1="151.00" y1="36.00" x2="151.00" y2="220.00" stroke="#d8d1c4" stroke-width="1"/><line x1="36.00" y1="151.00" x2="220.00" y2="151.00" stroke="#d8d1c4" stroke-width="1"/><line x1="174.00" y1="36.00" x2="174.00" y2="220.00" stroke="#d8d1c4" stroke-width="1"/><line x1="36.00" y1="174.00" x2="220.00" y2="174.00" stroke="#d8d1c4" stroke-width="1"/><line x1="197.00" y1="36.00" x2="197.00" y2="220.00" stroke="#d8d1c4" stroke-width="1"/><line x1="36.00" y1="197.00" x2="220.00" y2="197.00" stroke="#d8d1c4" stroke-width="1"/><line x1="220.00" y1="36.00" x2="220.00" y2="220.00" stroke="#d8d1c4" stroke-width="1"/><line x1="36.00" y1="220.00" x2="220.00" y2="220.00" stroke="#d8d1c4" stroke-width="1"/><path d="M 186.55 94.55 L 185.05 107.79 L 180.75 119.97 L 173.78 131.05 L 164.51 140.32 L 153.42 147.29 L 141.24 151.59 L 128.00 153.09 L 114.76 151.59 L 102.58 147.29 L 91.49 140.32 L 82.22 131.05 L 75.25 119.97 L 70.95 107.79 L 69.45 94.55 L 70.95 81.30 L 75.25 69.12 L 82.22 58.04 L 91.49 48.77 L 102.58 41.80 L 114.76 37.50 L 128.00 36.00 L 141.24 37.50 L 153.42 41.80 L 164.51 48.77 L 173.78 58.04 L 180.75 69.12 L 185.05 81.30 Z" fill="none" stroke="#1b6f84" stroke-width="3.2" stroke-linecap="round" stroke-linejoin="round" opacity="0.45"/><path d="M 96.30 143.81 L 86.18 220.00 L 128.00 194.91 L 169.82 220.00 L 159.70 143.72 " fill="none" stroke="#1b6f84" stroke-width="3.2" stroke-linecap="round" stroke-linejoin="round" opacity="0.45"/><path d="M 59.00 105.00 L 82.00 82.00 L 82.00 59.00 L 105.00 36.00 L 128.00 36.00 L 151.00 36.00 L 174.00 59.00 L 174.00 82.00 L 197.00 105.00 L 174.00 105.00 L 174.00 128.00 L 174.00 151.00 L 151.00 151.00 L 128.00 151.00 L 105.00 151.00 L 82.00 151.00 L 82.00 128.00 L 82.00 105.00 Z" fill="none" stroke="#e76f51" stroke-width="5.2" stroke-linecap="round" stroke-linejoin="round"/><path d="M 105.00 151.00 L 105.00 174.00 L 82.00 197.00 L 82.00 220.00 L 105.00 197.00 L 128.00 197.00 L 151.00 220.00 L 174.00 220.00 L 174.00 197.00 L 151.00 174.00 L 151.00 151.00 " fill="none" stroke="#e76f51" stroke-width="5.2" stroke-linecap="round" stroke-linejoin="round"/><circle cx="59.00" cy="105.00" r="3.6" fill="#edb183" stroke="#8a4f34" stroke-width="1.2"/><circle cx="82.00" cy="82.00" r="3.6" fill="#edb183" stroke="#8a4f34" stroke-width="1.2"/><circle cx="82.00" cy="59.00" r="3.6" fill="#edb183" stroke="#8a4f34" stroke-width="1.2"/><circle cx="105.00" cy="36.00" r="3.6" fill="#edb183" stroke="#8a4f34" stroke-width="1.2"/><circle cx="128.00" cy="36.00" r="3.6" fill="#edb183" stroke="#8a4f34" stroke-width="1.2"/><circle cx="151.00" cy="36.00" r="3.6" fill="#edb183" stroke="#8a4f34" stroke-width="1.2"/><circle cx="174.00" cy="59.00" r="3.6" fill="#edb183" stroke="#8a4f34" stroke-width="1.2"/><circle cx="174.00" cy="82.00" r="3.6" fill="#edb183" stroke="#8a4f34" stroke-width="1.2"/><circle cx="197.00" cy="105.00" r="3.6" fill="#edb183" stroke="#8a4f34" stroke-width="1.2"/><circle cx="174.00" cy="105.00" r="3.6" fill="#edb183" stroke="#8a4f34" stroke-width="1.2"/><circle cx="174.00" cy="128.00" r="3.6" fill="#edb183" stroke="#8a4f34" stroke-width="1.2"/><circle cx="174.00" cy="151.00" r="3.6" fill="#edb183" stroke="#8a4f34" stroke-width="1.2"/><circle cx="151.00" cy="151.00" r="3.6" fill="#edb183" stroke="#8a4f34" stroke-width="1.2"/><circle cx="128.00" cy="151.00" r="3.6" fill="#edb183" stroke="#8a4f34" stroke-width="1.2"/><circle cx="105.00" cy="151.00" r="3.6" fill="#edb183" stroke="#8a4f34" stroke-width="1.2"/><circle cx="82.00" cy="151.00" r="3.6" fill="#edb183" stroke="#8a4f34" stroke-width="1.2"/><circle cx="82.00" cy="128.00" r="3.6" fill="#edb183" stroke="#8a4f34" stroke-width="1.2"/><circle cx="82.00" cy="105.00" r="3.6" fill="#edb183" stroke="#8a4f34" stroke-width="1.2"/><circle cx="105.00" cy="151.00" r="3.6" fill="#edb183" stroke="#8a4f34" stroke-width="1.2"/><circle cx="105.00" cy="174.00" r="3.6" fill="#edb183" stroke="#8a4f34" stroke-width="1.2"/><circle cx="82.00" cy="197.00" r="3.6" fill="#edb183" stroke="#8a4f34" stroke-width="1.2"/><circle cx="82.00" cy="220.00" r="3.6" fill="#edb183" stroke="#8a4f34" stroke-width="1.2"/><circle cx="105.00" cy="197.00" r="3.6" fill="#edb183" stroke="#8a4f34" stroke-width="1.2"/><circle cx="128.00" cy="197.00" r="3.6" fill="#edb183" stroke="#8a4f34" stroke-width="1.2"/><circle cx="151.00" cy="220.00" r="3.6" fill="#edb183" stroke="#8a4f34" stroke-width="1.2"/><circle cx="174.00" cy="220.00" r="3.6" fill="#edb183" stroke="#8a4f34" stroke-width="1.2"/><circle cx="174.00" cy="197.00" r="3.6" fill="#edb183" stroke="#8a4f34" stroke-width="1.2"/><circle cx="151.00" cy="174.00" r="3.6" fill="#edb183" stroke="#8a4f34" stroke-width="1.2"/><circle cx="151.00" cy="151.00" r="3.6" fill="#edb183" stroke="#8a4f34" stroke-width="1.2"/><rect x="20" y="20" width="104" height="28" fill="#f9d8d1" rx="14"/><text x="30" y="39" font-size="15" font-family="Georgia, serif" font-weight="700" fill="#8b2e26">REJECTED</text><text x="20" y="286" font-size="14" font-family="Menlo, monospace" fill="#3f372d">mean 0.213  max 0.621</text><text x="20" y="306" font-size="14" font-family="Menlo, monospace" fill="#3f372d">f1 0.815  iou 0.688</text><text x="20" y="326" font-size="14" font-family="Menlo, monospace" fill="#3f372d">turn 1.909x  len 1.165x</text><text x="20" y="346" font-size="13" font-family="Menlo, monospace" fill="#5d5146">reasons: max_error, mean_error, render_f1, render_iou, turn_inflation</text></svg>