<svg xmlns="http://www.w3.org/2000/svg" viewBox="0 0 256 360"><rect width="256" height="360" fill="#f8f4eb" rx="18"/><rect x="18" y="18" width="220" height="220" fill="#fffdf9" stroke="#d8d1c4" stroke-width="2" rx="16"/><line x1="36.00" y1="36.00" x2="36.00" y2="220.00" stroke="#d8d1c4" stroke-width="1"/><line x1="36.00" y1="36.00" x2="220.00" y2="36.00" stroke="#d8d1c4" stroke-width="1"/><line x1="59.00" y1="36.00" x2="59.00" y2="220.00" stroke="#d8d1c4" stroke-width="1"/><line x1="36.00" y1="59.00" x2="220.00" y2="59.00" stroke="#d8d1c4" stroke-width="1"/><line x1="82.00" y1="36.00" x2="82.00" y2="220.00" stroke="#d8d1c4" stroke-width="1"/><line x1="36.00" y1="82.00" x2="220.00" y2="82.00" stroke="#d8d1c4" stroke-width="1"/><line x1="105.00" y1="36.00" x2="105.00" y2="220.00" stroke="#d8d1c4" stroke-width="1"/><line x1="36.00" y1="105.00" x2="220.00" y2="105.00" stroke="#d8d1c4" stroke-width="1"/><line x1="128.00" y1="36.00" x2="128.00" y2="220.00" stroke="#d8d1c4" stroke-width="1"/><line x1="36.00" y1="128.00" x2="220.00" y2="128.00" stroke="#d8d1c4" stroke-width="1"/><line x1="151.00" y1="36.00" x2="151.00" y2="220.00" stroke="#d8d1c4" stroke-width="1"/><line x1="36.00" y1="151.00" x2="220.00" y2="151.00" stroke="#d8d1c4" stroke-width="1"/><line x1="174.00" y1="36.00" x2="174.00" y2="220.00" stroke="#d8d1c4" stroke-width="1"/><line x1="36.00" y1="174.00" x2="220.00" y2="174.00" stroke="#d8d1c4" stroke-width="1"/><line x1="197.00" y1="36.00" x2="197.00" y2="220.00" stroke="#d8d1c4" stroke-width="1"/><line x1="36.00" y1="197.00" x2="220.00" y2="197.00" stroke="#d8d1c4" stroke-width="1"/><line x1="220.00" y1="36.00" x2="220.00" y2="220.00" stroke="#d8d1c4" stroke-width="1"/><line x1="36.00" y1="220.00" x2="220.00" y2="220.00" stroke="#d8d1c4" stroke-width="1"/><path d="M 204.10 130.08 L 211.94 120.23 L 217.21 109.22 L 219.95 97.16 L 219.95 84.77 L 217.21 72.71 L 211.94 61.71 L 204.10 51.86 L 194.25 44.01 L 183.24 38.75 L 171.18 36.00 L 158.79 36.00 L 146.73 38.75 L 135.73 44.01 L 125.88 51.86 L 63.69 114.05 L 63.69 192.36 L 142.00 192.36 Z" fill="none" stroke="#1b6f84" stroke-width="3.2" stroke-linecap="round" stroke-linejoin="round" opacity="0.45"/><path d="M 165.03 91.01 L 36.05 220.00 " fill="none" stroke="#1b6f84" stroke-width="3.2" stroke-linecap="round" stroke-linejoin="round" opacity="0.45"/><path d="M 178.85 155.51 L 100.54 155.51 " fill="none" stroke="#1b6f84" stroke-width="3.2" stroke-linecap="round" stroke-linejoin="round" opacity="0.45"/><path d="M 59.00 105.00 L 59.00 128.00 L 59.00 151.00 L 59.00 174.00 L 59.00 197.00 L 82.00 197.00 L 105.00 197.00 L 128.00 197.00 L 151.00 197.00 L 174.00 174.00 L 174.00 151.00 L 197.00 128.00 L 220.00 128.00 L 220.00 105.00 L 220.00 82.00 L 220.00 59.00 L 197.00 59.00 L 197.00 36.00 L 174.00 36.00 L 151.00 36.00 L 128.00 36.00 L 128.00 59.00 L 105.00 82.00 L 82.00 82.00 Z" fill="none" stroke="#e76f51" stroke-width="5.2" stroke-linecap="round" stroke-linejoin="round"/><path d="M 174.00 82.00 L 151.00 105.00 L 128.00 128.00 L 105.00 151.00 L 82.00 174.00 L 59.00 197.00 L 36.00 220.00 " fill="none" stroke="#e76f51" stroke-width="5.2" stroke-linecap="round" stroke-linejoin="round"/><path d="M 174.00 151.00 L 151.00 151.00 L 128.00 151.00 L 105.00 151.00 " fill="none" stroke="#e76f51" stroke-width="5.2" stroke-linecap="round" stroke-linejoin="round"/><circle cx="59.00" cy="105.00" r="3.6" fill="#edb183" stroke="#8a4f34" stroke-width="1.2"/><circle cx="59.00" cy="128.00" r="3.6" fill="#edb183" stroke="#8a4f34" stroke-width="1.2"/><circle cx="59.00" cy="151.00" r="3.6" fill="#edb183" stroke="#8a4f34" stroke-width="1.2"/><circle cx="59.00" cy="174.00" r="3.6" fill="#edb183" stroke="#8a4f34" stroke-width="1.2"/><circle cx="59.00" cy="197.00" r="3.6" fill="#edb183" stroke="#8a4f34" stroke-width="1.2"/><circle cx="82.00" cy="197.00" r="3.6" fill="#edb183" stroke="#8a4f34" stroke-width="1.2"/><circle cx="105.00" cy="197.00" r="3.6" fill="#edb183" stroke="#8a4f34" stroke-width="1.2"/><circle cx="128.00" cy="197.00" r="3.6" fill="#edb183" stroke="#8a4f34" stroke-width="1.2"/><circle cx="151.00" cy="197.00" r="3.6" fill="#edb183" stroke="#8a4f34" stroke-width="1.2"/><circle cx="174.00" cy="174.00" r="3.6" fill="#edb183" stroke="#8a4f34" stroke-width="1.2"/><circle cx="174.00" cy="151.00" r="3.6" fill="#edb183" stroke="#8a4f34" stroke-width="1.2"/><circle cx="197.00" cy="128.00" r="3.6" fill="#edb183" stroke="#8a4f34" stroke-width="1.2"/><circle cx="220.00" cy="128.00" r="3.6" fill="#edb183" stroke="#8a4f34" stroke-width="1.2"/><circle cx="220.00" cy="105.00" r="3.6" fill="#edb183" stroke="#8a4f34" stroke-width="1.2"/><circle cx="220.00" cy="82.00" r="3.6" fill="#edb183" stroke="#8a4f34" stroke-width="1.2"/><circle cx="220.00" cy="59.00" r="3.6" fill="#edb183" stroke="#8a4f34" stroke-width="1.2"/><circle cx="197.00" cy="59.00" r="3.6" fill="#edb183" stroke="#8a4f34" stroke-width="1.2"/><circle cx="197.00" cy="36.00" r="3.6" fill="#edb183" stroke="#8a4f34" stroke-width="1.2"/><circle cx="174.00" cy="36.00" r="3.6" fill="#edb183" stroke="#8a4f34" stroke-width="1.2"/><circle cx="151.00" cy="36.00" r="3.6" fill="#edb183" stroke="#8a4f34" stroke-width="1.2"/><circle cx="128.00" cy="36.00" r="3.6" fill="#edb183" stroke="#8a4f34" stroke-width="1.2"/><circle cx="128.00" cy="59.00" r="3.6" fill="#edb183" stroke="#8a4f34" stroke-width="1.2"/><circle cx="105.00" cy="82.00" r="3.6" fill="#edb183" stroke="#8a4f34" stroke-width="1.2"/><circle cx="82.00" cy="82.00" r="3.6" fill="#edb183" stroke="#8a4f34" stroke-width="1.2"/><circle cx="174.00" cy="82.00" r="3.6" fill="#edb183" stroke="#8a4f34" stroke-width="1.2"/><circle cx="151.00" cy="105.00" r="3.6" fill="#edb183" stroke="#8a4f34" stroke-width="1.2"/><circle cx="128.00" cy="128.00" r="3.6" fill="#edb183" stroke="#8a4f34" stroke-width="1.2"/><circle cx="105.00" cy="151.00" r="3.6" fill="#edb183" stroke="#8a4f34" stroke-width="1.2"/><circle cx="82.00" cy="174.00" r="3.6" fill="#edb183" stroke="#8a4f34" stroke-width="1.2"/><circle cx="59.00" cy="197.00" r="3.6" fill="#edb183" stroke="#8a4f34" stroke-width="1.2"/><circle cx="36.00" cy="220.00" r="3.6" fill="#edb183" stroke="#8a4f34" stroke-width="1.2"/><circle cx="174.00" cy="151.00" r="3.6" fill="#edb183" stroke="#8a4f34" stroke-width="1.2"/><circle cx="151.00" cy="151.00" r="3.6" fill="#edb183" stroke="#8a4f34" stroke-width="1.2"/><circle cx="128.00" cy="151.00" r="3.6" fill="#edb183" stroke="#8a4f34" stroke-width="1.2"/><circle cx="105.00" cy="151.00" r="3.6" fill="#edb183" stroke="#8a4f34" stroke-width="1.2"/><rect x="20" y="20" width="104" height="28" fill="#f9d8d1" rx="14"/><text x="30" y="39" font-size="15" font-family="Georgia, serif" font-weight="700" fill="#8b2e26">REJECTED</text><text x="20" y="286" font-size="14" font-family="Menlo, monospace" fill="#3f372d">mean 0.166  max 0.553</text><text x="20" y="306" font-size="14" font-family="Menlo, monospace" fill="#3f372d">f1 0.841  iou 0.726</text><text x="20" y="326" font-size="14" font-family="Menlo, monospace" fill="#3f372d">turn 2.000x  len 1.114x</text><text x="20" y="346" font-size="13" font-family="Menlo, monospace" fill="#5d5146">reasons: max_error, turn_inflation</text></svg>