<svg xmlns="http://www.w3.org/2000/svg" viewBox="0 0 256 360"><rect width="256" height="360" fill="#f8f4eb" rx="18"/><rect x="18" y="18" width="220" height="220" fill="#fffdf9" stroke="#d8d1c4" stroke-width="2" rx="16"/><line x1="36.00" y1="36.00" x2="36.00" y2="220.00" stroke="#d8d1c4" stroke-width="1"/><line x1="36.00" y1="36.00" x2="220.00" y2="36.00" stroke="#d8d1c4" stroke-width="1"/><line x1="59.00" y1="36.00" x2="59.00" y2="220.00" stroke="#d8d1c4" stroke-width="1"/><line x1="36.00" y1="59.00" x2="220.00" y2="59.00" stroke="#d8d1c4" stroke-width="1"/><line x1="82.00" y1="36.00" x2="82.00" y2="220.00" stroke="#d8d1c4" stroke-width="1"/><line x1="36.00" y1="82.00" x2="220.00" y2="82.00" stroke="#d8d1c4" stroke-width="1"/><line x1="105.00" y1="36.00" x2="105.00" y2="220.00" stroke="#d8d1c4" stroke-width="1"/><line x1="36.00" y1="105.00" x2="220.00" y2="105.00" stroke="#d8d1c4" stroke-width="1"/><line x1="128.00" y1="36.00" x2="128.00" y2="220.00" stroke="#d8d1c4" stroke-width="1"/><line x1="36.00" y1="128.00" x2="220.00" y2="128.00" stroke="#d8d1c4" stroke-width="1"/><line x1="151.00" y1="36.00" x2="151.00" y2="220.00" stroke="#d8d1c4" stroke-width="1"/><line x1="36.00" y1="151.00" x2="220.00" y2="151.00" stroke="#d8d1c4" stroke-width="1"/><line x1="174.00" y1="36.00" x2="174.00" y2="220.00" stroke="#d8d1c4" stroke-width="1"/><line x1="36.00" y1="174.00" x2="220.00" y2="174.00" stroke="#d8d1c4" stroke-width="1"/><line x1="197.00" y1="36.00" x2="197.00" y2="220.00" stroke="#d8d1c4" stroke-width="1"/><line x1="36.00" y1="197.00" x2="220.00" y2="197.00" stroke="#d8d1c4" stroke-width="1"/><line x1="220.00" y1="36.00" x2="220.00" y2="220.00" stroke="#d8d1c4" stroke-width="1"/><line x1="36.00" y1="220.00" x2="220.00" y2="220.00" stroke="#d8d1c4" stroke-width="1"/><path d="M 212.73 163.91 L 204.45 179.25 L 193.90 192.30 L 180.89 203.36 L 166.18 211.79 L 150.06 217.44 L 133.47 219.95 L 116.05 219.34 L 99.06 215.47 L 83.67 208.79 L 69.53 199.20 L 57.47 187.28 L 47.73 173.26 L 40.88 157.94 L 36.80 141.00 L 36.00 123.58 L 38.32 106.97 L 43.78 90.78 L 52.04 75.98 L 62.96 62.84 L 75.88 52.14 L 91.13 43.69 " fill="none" stroke="#1b6f84" stroke-width="3.2" stroke-linecap="round" stroke-linejoin="round" opacity="0.45"/><path d="M 220.00 128.10 L 218.54 111.73 L 214.46 96.55 L 207.63 82.00 L 198.48 68.94 L 187.11 57.58 L 174.05 48.42 L 159.50 41.59 L 144.32 37.51 L 127.95 36.05 L 127.95 128.10 Z" fill="none" stroke="#1b6f84" stroke-width="3.2" stroke-linecap="round" stroke-linejoin="round" opacity="0.45"/><path d="M 220.00 174.00 L 197.00 174.00 L 197.00 197.00 L 174.00 197.00 L 174.00 220.00 L 151.00 220.00 L 128.00 220.00 L 105.00 220.00 L 82.00 220.00 L 59.00 197.00 L 59.00 174.00 L 36.00 151.00 L 36.00 128.00 L 36.00 105.00 L 36.00 82.00 L 59.00 82.00 L 59.00 59.00 L 82.00 59.00 L 82.00 36.00 " fill="none" stroke="#e76f51" stroke-width="5.2" stroke-linecap="round" stroke-linejoin="round"/><path d="M 128.00 36.00 L 128.00 59.00 L 128.00 82.00 L 128.00 105.00 L 128.00 128.00 L 151.00 128.00 L 174.00 128.00 L 197.00 128.00 L 220.00 128.00 L 220.00 105.00 L 197.00 82.00 L 197.00 59.00 L 174.00 59.00 L 151.00 36.00 Z" fill="none" stroke="#e76f51" stroke-width="5.2" stroke-linecap="round" stroke-linejoin="round"/><circle cx="220.00" cy="174.00" r="3.6" fill="#edb183" stroke="#8a4f34" stroke-width="1.2"/><circle cx="197.00" cy="174.00" r="3.6" fill="#edb183" stroke="#8a4f34" stroke-width="1.2"/><circle cx="197.00" cy="197.00" r="3.6" fill="#edb183" stroke="#8a4f34" stroke-width="1.2"/><circle cx="174.00" cy="197.00" r="3.6" fill="#edb183" stroke="#8a4f34" stroke-width="1.2"/><circle cx="174.00" cy="220.00" r="3.6" fill="#edb183" stroke="#8a4f34" stroke-width="1.2"/><circle cx="151.00" cy="220.00" r="3.6" fill="#edb183" stroke="#8a4f34" stroke-width="1.2"/><circle cx="128.00" cy="220.00" r="3.6" fill="#edb183" stroke="#8a4f34" stroke-width="1.2"/><circle cx="105.00" cy="220.00" r="3.6" fill="#edb183" stroke="#8a4f34" stroke-width="1.2"/><circle cx="82.00" cy="220.00" r="3.6" fill="#edb183" stroke="#8a4f34" stroke-width="1.2"/><circle cx="59.00" cy="197.00" r="3.6" fill="#edb183" stroke="#8a4f34" stroke-width="1.2"/><circle cx="59.00" cy="174.00" r="3.6" fill="#edb183" stroke="#8a4f34" stroke-width="1.2"/><circle cx="36.00" cy="151.00" r="3.6" fill="#edb183" stroke="#8a4f34" stroke-width="1.2"/><circle cx="36.00" cy="128.00" r="3.6" fill="#edb183" stroke="#8a4f34" stroke-width="1.2"/><circle cx="36.00" cy="105.00" r="3.6" fill="#edb183" stroke="#8a4f34" stroke-width="1.2"/><circle cx="36.00" cy="82.00" r="3.6" fill="#edb183" stroke="#8a4f34" stroke-width="1.2"/><circle cx="59.00" cy="82.00" r="3.6" fill="#edb183" stroke="#8a4f34" stroke-width="1.2"/><circle cx="59.00" cy="59.00" r="3.6" fill="#edb183" stroke="#8a4f34" stroke-width="1.2"/><circle cx="82.00" cy="59.00" r="3.6" fill="#edb183" stroke="#8a4f34" stroke-width="1.2"/><circle cx="82.00" cy="36.00" r="3.6" fill="#edb183" stroke="#8a4f34" stroke-width="1.2"/><circle cx="128.00" cy="36.00" r="3.6" fill="#edb183" stroke="#8a4f34" stroke-width="1.2"/><circle cx="128.00" cy="59.00" r="3.6" fill="#edb183" stroke="#8a4f34" stroke-width="1.2"/><circle cx="128.00" cy="82.00" r="3.6" fill="#edb183" stroke="#8a4f34" stroke-width="1.2"/><circle cx="128.00" cy="105.00" r="3.6" fill="#edb183" stroke="#8a4f34" stroke-width="1.2"/><circle cx="128.00" cy="128.00" r="3.6" fill="#edb183" stroke="#8a4f34" stroke-width="1.2"/><circle cx="151.00" cy="128.00" r="3.6" fill="#edb183" stroke="#8a4f34" stroke-width="1.2"/><circle cx="174.00" cy="128.00" r="3.6" fill="#edb183" stroke="#8a4f34" stroke-width="1.2"/><circle cx="197.00" cy="128.00" r="3.6" fill="#edb183" stroke="#8a4f34" stroke-width="1.2"/><circle cx="220.00" cy="128.00" r="3.6" fill="#edb183" stroke="#8a4f34" stroke-width="1.2"/><circle cx="220.00" cy="105.00" r="3.6" fill="#edb183" stroke="#8a4f34" stroke-width="1.2"/><circle cx="197.00" cy="82.00" r="3.6" fill="#edb183" stroke="#8a4f34" stroke-width="1.2"/><circle cx="197.00" cy="59.00" r="3.6" fill="#edb183" stroke="#8a4f34" stroke-width="1.2"/><circle cx="174.00" cy="59.00" r="3.6" fill="#edb183" stroke="#8a4f34" stroke-width="1.2"/><circle cx="151.00" cy="36.00" r="3.6" fill="#edb183" stroke="#8a4f34" stroke-width="1.2"/><rect x="20" y="20" width="104" height="28" fill="#f9d8d1" rx="14"/><text x="30" y="39" font-size="15" font-family="Georgia, serif" font-weight="700" fill="#8b2e26">REJECTED</text><text x="20" y="286" font-size="14" font-family="Menlo, monospace" fill="#3f372d">mean 0.123  max 0.486</text><text x="20" y="306" font-size="14" font-family="Menlo, monospace" fill="#3f372d">f1 0.876  iou 0.779</text><text x="20" y="326" font-size="14" font-family="Menlo, monospace" fill="#3f372d">turn 2.222x  len 1.127x</text><text x="20" y="346" font-size="13" font-family="Menlo, monospace" fill="#5d5146">reasons: max_error, turn_inflation</text></svg>