<svg xmlns="http://www.w3.org/2000/svg" viewBox="0 0 256 360"><rect width="256" height="360" fill="#f8f4eb" rx="18"/><rect x="18" y="18" width="220" height="220" fill="#fffdf9" stroke="#d8d1c4" stroke-width="2" rx="16"/><line x1="36.00" y1="36.00" x2="36.00" y2="220.00" stroke="#d8d1c4" stroke-width="1"/><line x1="36.00" y1="36.00" x2="220.00" y2="36.00" stroke="#d8d1c4" stroke-width="1"/><line x1="59.00" y1="36.00" x2="59.00" y2="220.00" stroke="#d8d1c4" stroke-width="1"/><line x1="36.00" y1="59.00" x2="220.00" y2="59.00" stroke="#d8d1c4" stroke-width="1"/><line x1="82.00" y1="36.00" x2="82.00" y2="220.00" stroke="#d8d1c4" stroke-width="1"/><line x1="36.00" y1="82.00" x2="220.00" y2="82.00" stroke="#d8d1c4" stroke-width="1"/><line x1="105.00" y1="36.00" x2="105.00" y2="220.00" stroke="#d8d1c4" stroke-width="1"/><line x1="36.00" y1="105.00" x2="220.00" y2="105.00" stroke="#d8d1c4" stroke-width="1"/><line x1="128.00" y1="36.00" x2="128.00" y2="220.00" stroke="#d8d1c4" stroke-width="1"/><line x1="36.00" y1="128.00" x2="220.00" y2="128.00" stroke="#d8d1c4" stroke-width="1"/><line x1="151.00" y1="36.00" x2="151.00" y2="220.00" stroke="#d8d1c4" stroke-width="1"/><line x1="36.00" y1="151.00" x2="220.00" y2="151.00" stroke="#d8d1c4" stroke-width="1"/><line x1="174.00" y1="36.00" x2="174.00" y2="220.00" stroke="#d8d1c4" stroke-width="1"/><line x1="36.00" y1="174.00" x2="220.00" y2="174.00" stroke="#d8d1c4" stroke-width="1"/><line x1="197.00" y1="36.00" x2="197.00" y2="220.00" stroke="#d8d1c4" stroke-width="1"/><line x1="36.00" y1="197.00" x2="220.00" y2="197.00" stroke="#d8d1c4" stroke-width="1"/><line x1="220.00" y1="36.00" x2="220.00" y2="220.00" stroke="#d8d1c4" stroke-width="1"/><line x1="36.00" y1="220.00" x2="220.00" y2="220.00" stroke="#d8d1c4" stroke-width="1"/><path d="M 153.09 128.00 L 151.83 135.88 L 148.28 142.77 L 142.77 148.28 L 135.88 151.83 L 128.00 153.09 L 120.12 151.83 L 113.23 148.28 L 107.72 142.77 L 104.17 135.88 L 102.91 128.00 L 104.17 120.12 L 107.72 113.23 L 113.23 107.72 L 120.12 104.17 L 128.00 102.91 L 135.88 104.17 L 142.77 107.72 L 148.28 113.23 L 151.83 120.12 Z" fill="none" stroke="#1b6f84" stroke-width="3.2" stroke-linecap="round" stroke-linejoin="round" opacity="0.45"/><path d="M 189.89 153.09 L 188.71 158.43 L 189.67 163.73 L 192.65 168.31 L 193.15 168.81 L 196.78 174.24 L 198.06 180.65 L 196.78 187.05 L 193.15 192.48 L 187.72 196.11 L 181.32 197.39 L 174.91 196.11 L 169.48 192.48 L 168.98 191.98 L 164.39 189.01 L 159.10 188.05 L 153.76 189.22 L 149.35 192.23 L 146.45 196.62 L 145.40 201.85 L 145.40 203.27 L 144.12 209.72 L 140.50 215.10 L 135.11 218.72 L 128.67 220.00 L 122.22 218.72 L 116.84 215.10 L 113.22 209.72 L 111.94 203.27 L 111.94 202.52 L 110.73 197.17 L 107.58 192.77 L 102.91 189.89 L 97.57 188.71 L 92.27 189.67 L 87.69 192.65 L 87.19 193.15 L 81.76 196.78 L 75.35 198.06 L 68.95 196.78 L 63.52 193.15 L 59.89 187.72 L 58.61 181.32 L 59.89 174.91 L 63.52 169.48 L 64.02 168.98 L 66.99 164.39 L 67.95 159.10 L 66.78 153.76 L 63.77 149.35 L 59.38 146.45 L 54.15 145.40 L 52.73 145.40 L 46.28 144.12 L 40.90 140.50 L 37.28 135.11 L 36.00 128.67 L 37.28 122.22 L 40.90 116.84 L 46.28 113.22 L 52.73 111.94 L 53.48 111.94 L 58.83 110.73 L 63.23 107.58 L 66.11 102.91 L 67.29 97.57 L 66.33 92.27 L 63.35 87.69 L 62.85 87.19 L 59.22 81.76 L 57.94 75.35 L 59.22 68.95 L 62.85 63.52 L 68.28 59.89 L 74.68 58.61 L 81.09 59.89 L 86.52 63.52 L 87.02 64.02 L 91.61 66.99 L 96.90 67.95 L 102.24 66.78 L 102.91 66.78 L 107.32 63.77 L 110.22 59.38 L 111.27 54.15 L 111.27 52.73 L 112.55 46.28 L 116.17 40.90 L 121.55 37.28 L 128.00 36.00 L 134.45 37.28 L 139.83 40.90 L 143.45 46.28 L 144.73 52.73 L 144.73 53.48 L 145.78 58.71 L 148.68 63.10 L 153.09 66.11 L 158.43 67.29 L 163.73 66.33 L 168.31 63.35 L 168.81 62.85 L 174.24 59.22 L 180.65 57.94 L 187.05 59.22 L 192.48 62.85 L 196.11 68.28 L 197.39 74.68 L 196.11 81.09 L 192.48 86.52 L 191.98 87.02 L 189.01 91.61 L 188.05 96.90 L 189.22 102.24 L 189.22 102.91 L 192.23 107.32 L 196.62 110.22 L 201.85 111.27 L 203.27 111.27 L 209.72 112.55 L 215.10 116.17 L 218.72 121.55 L 220.00 128.00 L 218.72 134.45 L 215.10 139.83 L 209.72 143.45 L 203.27 144.73 L 202.52 144.73 L 197.29 145.78 L 192.90 148.68 Z" fill="none" stroke="#1b6f84" stroke-width="3.2" stroke-linecap="round" stroke-linejoin="round" opacity="0.45"/><path d="M 105.00 105.00 L 128.00 105.00 L 151.00 105.00 L 151.00 128.00 L 151.00 151.00 L 128.00 151.00 L 105.00 151.00 L 105.00 128.00 Z" fill="none" stroke="#e76f51" stroke-width="5.2" stroke-linecap="round" stroke-linejoin="round"/><path d="M 36.00 105.00 L 59.00 105.00 L 59.00 82.00 L 59.00 59.00 L 82.00 59.00 L 105.00 59.00 L 105.00 36.00 L 128.00 36.00 L 151.00 36.00 L 151.00 59.00 L 174.00 59.00 L 197.00 59.00 L 197.00 82.00 L 197.00 105.00 L 220.00 105.00 L 220.00 128.00 L 220.00 151.00 L 197.00 151.00 L 197.00 174.00 L 197.00 197.00 L 174.00 197.00 L 151.00 197.00 L 151.00 220.00 L 128.00 220.00 L 105.00 220.00 L 105.00 197.00 L 82.00 197.00 L 59.00 197.00 L 59.00 174.00 L 59.00 151.00 L 36.00 151.00 L 36.00 128.00 Z" fill="none" stroke="#e76f51" stroke-width="5.2" stroke-linecap="round" stroke-linejoin="round"/><circle cx="105.00" cy="105.00" r="3.6" fill="#edb183" stroke="#8a4f34" stroke-width="1.2"/><circle cx="128.00" cy="105.00" r="3.6" fill="#edb183" stroke="#8a4f34" stroke-width="1.2"/><circle cx="151.00" cy="105.00" r="3.6" fill="#edb183" stroke="#8a4f34" stroke-width="1.2"/><circle cx="151.00" cy="128.00" r="3.6" fill="#edb183" stroke="#8a4f34" stroke-width="1.2"/><circle cx="151.00" cy="151.00" r="3.6" fill="#edb183" stroke="#8a4f34" stroke-width="1.2"/><circle cx="128.00" cy="151.00" r="3.6" fill="#edb183" stroke="#8a4f34" stroke-width="1.2"/><circle cx="105.00" cy="151.00" r="3.6" fill="#edb183" stroke="#8a4f34" stroke-width="1.2"/><circle cx="105.00" cy="128.00" r="3.6" fill="#edb183" stroke="#8a4f34" stroke-width="1.2"/><circle cx="36.00" cy="105.00" r="3.6" fill="#edb183" stroke="#8a4f34" stroke-width="1.2"/><circle cx="59.00" cy="105.00" r="3.6" fill="#edb183" stroke="#8a4f34" stroke-width="1.2"/><circle cx="59.00" cy="82.00" r="3.6" fill="#edb183" stroke="#8a4f34" stroke-width="1.2"/><circle cx="59.00" cy="59.00" r="3.6" fill="#edb183" stroke="#8a4f34" stroke-width="1.2"/><circle cx="82.00" cy="59.00" r="3.6" fill="#edb183" stroke="#8a4f34" stroke-width="1.2"/><circle cx="105.00" cy="59.00" r="3.6" fill="#edb183" stroke="#8a4f34" stroke-width="1.2"/><circle cx="105.00" cy="36.00" r="3.6" fill="#edb183" stroke="#8a4f34" stroke-width="1.2"/><circle cx="128.00" cy="36.00" r="3.6" fill="#edb183" stroke="#8a4f34" stroke-width="1.2"/><circle cx="151.00" cy="36.00" r="3.6" fill="#edb183" stroke="#8a4f34" stroke-width="1.2"/><circle cx="151.00" cy="59.00" r="3.6" fill="#edb183" stroke="#8a4f34" stroke-width="1.2"/><circle cx="174.00" cy="59.00" r="3.6" fill="#edb183" stroke="#8a4f34" stroke-width="1.2"/><circle cx="197.00" cy="59.00" r="3.6" fill="#edb183" stroke="#8a4f34" stroke-width="1.2"/><circle cx="197.00" cy="82.00" r="3.6" fill="#edb183" stroke="#8a4f34" stroke-width="1.2"/><circle cx="197.00" cy="105.00" r="3.6" fill="#edb183" stroke="#8a4f34" stroke-width="1.2"/><circle cx="220.00" cy="105.00" r="3.6" fill="#edb183" stroke="#8a4f34" stroke-width="1.2"/><circle cx="220.00" cy="128.00" r="3.6" fill="#edb183" stroke="#8a4f34" stroke-width="1.2"/><circle cx="220.00" cy="151.00" r="3.6" fill="#edb183" stroke="#8a4f34" stroke-width="1.2"/><circle cx="197.00" cy="151.00" r="3.6" fill="#edb183" stroke="#8a4f34" stroke-width="1.2"/><circle cx="197.00" cy="174.00" r="3.6" fill="#edb183" stroke="#8a4f34" stroke-width="1.2"/><circle cx="197.00" cy="197.00" r="3.6" fill="#edb183" stroke="#8a4f34" stroke-width="1.2"/><circle cx="174.00" cy="197.00" r="3.6" fill="#edb183" stroke="#8a4f34" stroke-width="1.2"/><circle cx="151.00" cy="197.00" r="3.6" fill="#edb183" stroke="#8a4f34" stroke-width="1.2"/><circle cx="151.00" cy="220.00" r="3.6" fill="#edb183" stroke="#8a4f34" stroke-width="1.2"/><circle cx="128.00" cy="220.00" r="3.6" fill="#edb183" stroke="#8a4f34" stroke-width="1.2"/><circle cx="105.00" cy="220.00" r="3.6" fill="#edb183" stroke="#8a4f34" stroke-width="1.2"/><circle cx="105.00" cy="197.00" r="3.6" fill="#edb183" stroke="#8a4f34" stroke-width="1.2"/><circle cx="82.00" cy="197.00" r="3.6" fill="#edb183" stroke="#8a4f34" stroke-width="1.2"/><circle cx="59.00" cy="197.00" r="3.6" fill="#edb183" stroke="#8a4f34" stroke-width="1.2"/><circle cx="59.00" cy="174.00" r="3.6" fill="#edb183" stroke="#8a4f34" stroke-width="1.2"/><circle cx="59.00" cy="151.00" r="3.6" fill="#edb183" stroke="#8a4f34" stroke-width="1.2"/><circle cx="36.00" cy="151.00" r="3.6" fill="#edb183" stroke="#8a4f34" stroke-width="1.2"/><circle cx="36.00" cy="128.00" r="3.6" fill="#edb183" stroke="#8a4f34" stroke-width="1.2"/><rect x="20" y="20" width="104" height="28" fill="#f9d8d1" rx="14"/><text x="30" y="39" font-size="15" font-family="Georgia, serif" font-weight="700" fill="#8b2e26">REJECTED</text><text x="20" y="286" font-size="14" font-family="Menlo, monospace" fill="#3f372d">mean 0.179  max 0.546</text><text x="20" y="306" font-size="14" font-family="Menlo, monospace" fill="#3f372d">f1 0.818  iou 0.692</text><text x="20" y="326" font-size="14" font-family="Menlo, monospace" fill="#3f372d">turn 0.375x  len 1.083x</text><text x="20" y="346" font-size="13" font-family="Menlo, monospace" fill="#5d5146">reasons: max_error, render_f1, render_iou</text></svg>