<svg xmlns="http://www.w3.org/2000/svg" viewBox="0 0 256 360"><rect width="256" height="360" fill="#f8f4eb" rx="18"/><rect x="18" y="18" width="220" height="220" fill="#fffdf9" stroke="#d8d1c4" stroke-width="2" rx="16"/><line x1="36.00" y1="36.00" x2="36.00" y2="220.00" stroke="#d8d1c4" stroke-width="1"/><line x1="36.00" y1="36.00" x2="220.00" y2="36.00" stroke="#d8d1c4" stroke-width="1"/><line x1="59.00" y1="36.00" x2="59.00" y2="220.00" stroke="#d8d1c4" stroke-width="1"/><line x1="36.00" y1="59.00" x2="220.00" y2="59.00" stroke="#d8d1c4" stroke-width="1"/><line x1="82.00" y1="36.00" x2="82.00" y2="220.00" stroke="#d8d1c4" stroke-width="1"/><line x1="36.00" y1="82.00" x2="220.00" y2="82.00" stroke="#d8d1c4" stroke-width="1"/><line x1="105.00" y1="36.00" x2="105.00" y2="220.00" stroke="#d8d1c4" stroke-width="1"/><line x1="36.00" y1="105.00" x2="220.00" y2="105.00" stroke="#d8d1c4" stroke-width="1"/><line x1="128.00" y1="36.00" x2="128.00" y2="220.00" stroke="#d8d1c4" stroke-width="1"/><line x1="36.00" y1="128.00" x2="220.00" y2="128.00" stroke="#d8d1c4" stroke-width="1"/><line x1="151.00" y1="36.00" x2="151.00" y2="220.00" stroke="#d8d1c4" stroke-width="1"/><line x1="36.00" y1="151.00" x2="220.00" y2="151.00" stroke="#d8d1c4" stroke-width="1"/><line x1="174.00" y1="36.00" x2="174.00" y2="220.00" stroke="#d8d1c4" stroke-width="1"/><line x1="36.00" y1="174.00" x2="220.00" y2="174.00" stroke="#d8d1c4" stroke-width="1"/><line x1="197.00" y1="36.00" x2="197.00" y2="220.00" stroke="#d8d1c4" stroke-width="1"/><line x1="36.00" y1="197.00" x2="220.00" y2="197.00" stroke="#d8d1c4" stroke-width="1"/><line x1="220.00" y1="36.00" x2="220.00" y2="220.00" stroke="#d8d1c4" stroke-width="1"/><line x1="36.00" y1="220.00" x2="220.00" y2="220.00" stroke="#d8d1c4" stroke-width="1"/><path d="M 33.12 52.73 L 158.58 52.73 L 158.58 161.45 L 33.12 161.45 Z" fill="none" stroke="#1b6f84" stroke-width="3.2" stroke-linecap="round" stroke-linejoin="round" opacity="0.45"/><path d="M 158.58 94.55 L 192.03 94.55 L 217.12 119.64 L 217.12 161.45 L 158.58 161.45 Z" fill="none" stroke="#1b6f84" stroke-width="3.2" stroke-linecap="round" stroke-linejoin="round" opacity="0.45"/><path d="M 91.67 182.36 L 90.62 188.93 L 87.66 194.67 L 83.07 199.27 L 77.32 202.23 L 70.76 203.27 L 64.20 202.23 L 58.46 199.27 L 53.86 194.67 L 50.90 188.93 L 49.85 182.36 L 50.90 175.80 L 53.86 170.06 L 58.46 165.46 L 64.20 162.50 L 70.76 161.45 L 77.32 162.50 L 83.07 165.46 L 87.66 170.06 L 90.62 175.80 Z" fill="none" stroke="#1b6f84" stroke-width="3.2" stroke-linecap="round" stroke-linejoin="round" opacity="0.45"/><path d="M 200.40 182.36 L 199.35 188.93 L 196.39 194.67 L 191.79 199.27 L 186.05 202.23 L 179.49 203.27 L 172.93 202.23 L 167.18 199.27 L 162.59 194.67 L 159.63 188.93 L 158.58 182.36 L 159.63 175.80 L 162.59 170.06 L 167.18 165.46 L 172.93 162.50 L 179.49 161.45 L 186.05 162.50 L 191.79 165.46 L 196.39 170.06 L 199.35 175.80 Z" fill="none" stroke="#1b6f84" stroke-width="3.2" stroke-linecap="round" stroke-linejoin="round" opacity="0.45"/><path d="M 36.00 59.00 L 59.00 59.00 L 82.00 59.00 L 105.00 59.00 L 128.00 59.00 L 151.00 59.00 L 151.00 82.00 L 151.00 105.00 L 151.00 128.00 L 151.00 151.00 L 128.00 151.00 L 105.00 151.00 L 82.00 151.00 L 59.00 151.00 L 36.00 151.00 L 36.00 128.00 L 36.00 105.00 L 36.00 82.00 Z" fill="none" stroke="#e76f51" stroke-width="5.2" stroke-linecap="round" stroke-linejoin="round"/><path d="M 151.00 105.00 L 174.00 105.00 L 197.00 105.00 L 220.00 128.00 L 220.00 151.00 L 197.00 151.00 L 174.00 151.00 L 151.00 151.00 L 151.00 128.00 Z" fill="none" stroke="#e76f51" stroke-width="5.2" stroke-linecap="round" stroke-linejoin="round"/><path d="M 59.00 174.00 L 82.00 151.00 L 82.00 174.00 L 105.00 174.00 L 82.00 197.00 L 59.00 197.00 Z" fill="none" stroke="#e76f51" stroke-width="5.2" stroke-linecap="round" stroke-linejoin="round"/><path d="M 151.00 174.00 L 174.00 174.00 L 174.00 151.00 L 197.00 174.00 L 197.00 197.00 L 174.00 197.00 Z" fill="none" stroke="#e76f51" stroke-width="5.2" stroke-linecap="round" stroke-linejoin="round"/><circle cx="36.00" cy="59.00" r="3.6" fill="#edb183" stroke="#8a4f34" stroke-width="1.2"/><circle cx="59.00" cy="59.00" r="3.6" fill="#edb183" stroke="#8a4f34" stroke-width="1.2"/><circle cx="82.00" cy="59.00" r="3.6" fill="#edb183" stroke="#8a4f34" stroke-width="1.2"/><circle cx="105.00" cy="59.00" r="3.6" fill="#edb183" stroke="#8a4f34" stroke-width="1.2"/><circle cx="128.00" cy="59.00" r="3.6" fill="#edb183" stroke="#8a4f34" stroke-width="1.2"/><circle cx="151.00" cy="59.00" r="3.6" fill="#edb183" stroke="#8a4f34" stroke-width="1.2"/><circle cx="151.00" cy="82.00" r="3.6" fill="#edb183" stroke="#8a4f34" stroke-width="1.2"/><circle cx="151.00" cy="105.00" r="3.6" fill="#edb183" stroke="#8a4f34" stroke-width="1.2"/><circle cx="151.00" cy="128.00" r="3.6" fill="#edb183" stroke="#8a4f34" stroke-width="1.2"/><circle cx="151.00" cy="151.00" r="3.6" fill="#edb183" stroke="#8a4f34" stroke-width="1.2"/><circle cx="128.00" cy="151.00" r="3.6" fill="#edb183" stroke="#8a4f34" stroke-width="1.2"/><circle cx="105.00" cy="151.00" r="3.6" fill="#edb183" stroke="#8a4f34" stroke-width="1.2"/><circle cx="82.00" cy="151.00" r="3.6" fill="#edb183" stroke="#8a4f34" stroke-width="1.2"/><circle cx="59.00" cy="151.00" r="3.6" fill="#edb183" stroke="#8a4f34" stroke-width="1.2"/><circle cx="36.00" cy="151.00" r="3.6" fill="#edb183" stroke="#8a4f34" stroke-width="1.2"/><circle cx="36.00" cy="128.00" r="3.6" fill="#edb183" stroke="#8a4f34" stroke-width="1.2"/><circle cx="36.00" cy="105.00" r="3.6" fill="#edb183" stroke="#8a4f34" stroke-width="1.2"/><circle cx="36.00" cy="82.00" r="3.6" fill="#edb183" stroke="#8a4f34" stroke-width="1.2"/><circle cx="151.00" cy="105.00" r="3.6" fill="#edb183" stroke="#8a4f34" stroke-width="1.2"/><circle cx="174.00" cy="105.00" r="3.6" fill="#edb183" stroke="#8a4f34" stroke-width="1.2"/><circle cx="197.00" cy="105.00" r="3.6" fill="#edb183" stroke="#8a4f34" stroke-width="1.2"/><circle cx="220.00" cy="128.00" r="3.6" fill="#edb183" stroke="#8a4f34" stroke-width="1.2"/><circle cx="220.00" cy="151.00" r="3.6" fill="#edb183" stroke="#8a4f34" stroke-width="1.2"/><circle cx="197.00" cy="151.00" r="3.6" fill="#edb183" stroke="#8a4f34" stroke-width="1.2"/><circle cx="174.00" cy="151.00" r="3.6" fill="#edb183" stroke="#8a4f34" stroke-width="1.2"/><circle cx="151.00" cy="151.00" r="3.6" fill="#edb183" stroke="#8a4f34" stroke-width="1.2"/><circle cx="151.00" cy="128.00" r="3.6" fill="#edb183" stroke="#8a4f34" stroke-width="1.2"/><circle cx="59.00" cy="174.00" r="3.6" fill="#edb183" stroke="#8a4f34" stroke-width="1.2"/><circle cx="82.00" cy="151.00" r="3.6" fill="#edb183" stroke="#8a4f34" stroke-width="1.2"/><circle cx="82.00" cy="174.00" r="3.6" fill="#edb183" stroke="#8a4f34" stroke-width="1.2"/><circle cx="105.00" cy="174.00" r="3.6" fill="#edb183" stroke="#8a4f34" stroke-width="1.2"/><circle cx="82.00" cy="197.00" r="3.6" fill="#edb183" stroke="#8a4f34" stroke-width="1.2"/><circle cx="59.00" cy="197.00" r="3.6" fill="#edb183" stroke="#8a4f34" stroke-width="1.2"/><circle cx="151.00" cy="174.00" r="3.6" fill="#edb183" stroke="#8a4f34" stroke-width="1.2"/><circle cx="174.00" cy="174.00" r="3.6" fill="#edb183" stroke="#8a4f34" stroke-width="1.2"/><circle cx="174.00" cy="151.00" r="3.6" fill="#edb183" stroke="#8a4f34" stroke-width="1.2"/><circle cx="197.00" cy="174.00" r="3.6" fill="#edb183" stroke="#8a4f34" stroke-width="1.2"/><circle cx="197.00" cy="197.00" r="3.6" fill="#edb183" stroke="#8a4f34" stroke-width="1.2"/><circle cx="174.00" cy="197.00" r="3.6" fill="#edb183" stroke="#8a4f34" stroke-width="1.2"/><rect x="20" y="20" width="104" height="28" fill="#f9d8d1" rx="14"/><text x="30" y="39" font-size="15" font-family="Georgia, serif" font-weight="700" fill="#8b2e26">REJECTED</text><text x="20" y="286" font-size="14" font-family="Menlo, monospace" fill="#3f372d">mean 0.266  max 0.630</text><text x="20" y="306" font-size="14" font-family="Menlo, monospace" fill="#3f372d">f1 0.751  iou 0.601</text><text x="20" y="326" font-size="14" font-family="Menlo, monospace" fill="#3f372d">turn 0.840x  len 0.978x</text><text x="20" y="346" font-size="13" font-family="Menlo, monospace" fill="#5d5146">reasons: max_error, mean_error, render_f1, render_iou</text></svg>