<svg xmlns="http://www.w3.org/2000/svg" viewBox="0 0 256 360"><rect width="256" height="360" fill="#f8f4eb" rx="18"/><rect x="18" y="18" width="220" height="220" fill="#fffdf9" stroke="#d8d1c4" stroke-width="2" rx="16"/><line x1="36.00" y1="36.00" x2="36.00" y2="220.00" stroke="#d8d1c4" stroke-width="1"/><line x1="36.00" y1="36.00" x2="220.00" y2="36.00" stroke="#d8d1c4" stroke-width="1"/><line x1="59.00" y1="36.00" x2="59.00" y2="220.00" stroke="#d8d1c4" stroke-width="1"/><line x1="36.00" y1="59.00" x2="220.00" y2="59.00" stroke="#d8d1c4" stroke-width="1"/><line x1="82.00" y1="36.00" x2="82.00" y2="220.00" stroke="#d8d1c4" stroke-width="1"/><line x1="36.00" y1="82.00" x2="220.00" y2="82.00" stroke="#d8d1c4" stroke-width="1"/><line x1="105.00" y1="36.00" x2="105.00" y2="220.00" stroke="#d8d1c4" stroke-width="1"/><line x1="36.00" y1="105.00" x2="220.00" y2="105.00" stroke="#d8d1c4" stroke-width="1"/><line x1="128.00" y1="36.00" x2="128.00" y2="220.00" stroke="#d8d1c4" stroke-width="1"/><line x1="36.00" y1="128.00" x2="220.00" y2="128.00" stroke="#d8d1c4" stroke-width="1"/><line x1="151.00" y1="36.00" x2="151.00" y2="220.00" stroke="#d8d1c4" stroke-width="1"/><line x1="36.00" y1="151.00" x2="220.00" y2="151.00" stroke="#d8d1c4" stroke-width="1"/><line x1="174.00" y1="36.00" x2="174.00" y2="220.00" stroke="#d8d1c4" stroke-width="1"/><line x1="36.00" y1="174.00" x2="220.00" y2="174.00" stroke="#d8d1c4" stroke-width="1"/><line x1="197.00" y1="36.00" x2="197.00" y2="220.00" stroke="#d8d1c4" stroke-width="1"/><line x1="36.00" y1="197.00" x2="220.00" y2="197.00" stroke="#d8d1c4" stroke-width="1"/><line x1="220.00" y1="36.00" x2="220.00" y2="220.00" stroke="#d8d1c4" stroke-width="1"/><line x1="36.00" y1="220.00" x2="220.00" y2="220.00" stroke="#d8d1c4" stroke-width="1"/><path d="M 66.67 66.67 L 68.20 57.04 L 72.54 48.62 L 79.29 41.88 L 87.71 37.54 L 97.33 36.00 L 128.00 36.00 L 128.00 97.33 L 97.33 97.33 L 87.71 95.80 L 79.29 91.46 L 72.54 84.71 L 68.20 76.29 Z" fill="none" stroke="#1b6f84" stroke-width="3.2" stroke-linecap="round" stroke-linejoin="round" opacity="0.45"/><path d="M 128.00 36.00 L 158.67 36.00 L 168.29 37.54 L 176.71 41.88 L 183.46 48.62 L 187.80 57.04 L 189.33 66.67 L 187.80 76.29 L 183.46 84.71 L 176.71 91.46 L 168.29 95.80 L 158.67 97.33 L 128.00 97.33 Z" fill="none" stroke="#1b6f84" stroke-width="3.2" stroke-linecap="round" stroke-linejoin="round" opacity="0.45"/><path d="M 128.00 128.00 L 129.54 118.37 L 133.88 109.95 L 140.62 103.21 L 149.04 98.87 L 158.67 97.33 L 168.29 98.87 L 176.71 103.21 L 183.46 109.95 L 187.80 118.37 L 189.33 128.00 L 187.80 137.63 L 183.46 146.05 L 176.71 152.79 L 168.29 157.13 L 158.67 158.67 L 149.04 157.13 L 140.62 152.79 L 133.88 146.05 L 129.54 137.63 Z" fill="none" stroke="#1b6f84" stroke-width="3.2" stroke-linecap="round" stroke-linejoin="round" opacity="0.45"/><path d="M 66.67 189.33 L 68.20 179.71 L 72.54 171.29 L 79.29 164.54 L 87.71 160.20 L 97.33 158.67 L 128.00 158.67 L 128.00 189.33 L 126.46 198.96 L 122.12 207.38 L 115.38 214.12 L 106.96 218.46 L 97.33 220.00 L 87.71 218.46 L 79.29 214.12 L 72.54 207.38 L 68.20 198.96 Z" fill="none" stroke="#1b6f84" stroke-width="3.2" stroke-linecap="round" stroke-linejoin="round" opacity="0.45"/><path d="M 66.67 128.00 L 68.20 118.37 L 72.54 109.95 L 79.29 103.21 L 87.71 98.87 L 97.33 97.33 L 128.00 97.33 L 128.00 158.67 L 97.33 158.67 L 87.71 157.13 L 79.29 152.79 L 72.54 146.05 L 68.20 137.63 Z" fill="none" stroke="#1b6f84" stroke-width="3.2" stroke-linecap="round" stroke-linejoin="round" opacity="0.45"/><path d="M 59.00 59.00 L 82.00 59.00 L 82.00 36.00 L 105.00 36.00 L 128.00 36.00 L 128.00 59.00 L 128.00 82.00 L 128.00 105.00 L 105.00 105.00 L 82.00 105.00 L 82.00 82.00 L 59.00 82.00 Z" fill="none" stroke="#e76f51" stroke-width="5.2" stroke-linecap="round" stroke-linejoin="round"/><path d="M 128.00 36.00 L 151.00 36.00 L 174.00 36.00 L 174.00 59.00 L 197.00 59.00 L 197.00 82.00 L 174.00 82.00 L 174.00 105.00 L 151.00 105.00 L 128.00 105.00 L 128.00 82.00 L 128.00 59.00 Z" fill="none" stroke="#e76f51" stroke-width="5.2" stroke-linecap="round" stroke-linejoin="round"/><path d="M 128.00 105.00 L 151.00 105.00 L 174.00 105.00 L 197.00 128.00 L 174.00 151.00 L 151.00 151.00 L 128.00 151.00 L 128.00 128.00 Z" fill="none" stroke="#e76f51" stroke-width="5.2" stroke-linecap="round" stroke-linejoin="round"/><path d="M 59.00 174.00 L 82.00 174.00 L 82.00 151.00 L 105.00 151.00 L 128.00 151.00 L 128.00 174.00 L 128.00 197.00 L 105.00 220.00 L 82.00 220.00 L 82.00 197.00 L 59.00 197.00 Z" fill="none" stroke="#e76f51" stroke-width="5.2" stroke-linecap="round" stroke-linejoin="round"/><path d="M 59.00 128.00 L 82.00 105.00 L 105.00 105.00 L 128.00 105.00 L 128.00 128.00 L 128.00 151.00 L 105.00 151.00 L 82.00 151.00 Z" fill="none" stroke="#e76f51" stroke-width="5.2" stroke-linecap="round" stroke-linejoin="round"/><circle cx="59.00" cy="59.00" r="3.6" fill="#edb183" stroke="#8a4f34" stroke-width="1.2"/><circle cx="82.00" cy="59.00" r="3.6" fill="#edb183" stroke="#8a4f34" stroke-width="1.2"/><circle cx="82.00" cy="36.00" r="3.6" fill="#edb183" stroke="#8a4f34" stroke-width="1.2"/><circle cx="105.00" cy="36.00" r="3.6" fill="#edb183" stroke="#8a4f34" stroke-width="1.2"/><circle cx="128.00" cy="36.00" r="3.6" fill="#edb183" stroke="#8a4f34" stroke-width="1.2"/><circle cx="128.00" cy="59.00" r="3.6" fill="#edb183" stroke="#8a4f34" stroke-width="1.2"/><circle cx="128.00" cy="82.00" r="3.6" fill="#edb183" stroke="#8a4f34" stroke-width="1.2"/><circle cx="128.00" cy="105.00" r="3.6" fill="#edb183" stroke="#8a4f34" stroke-width="1.2"/><circle cx="105.00" cy="105.00" r="3.6" fill="#edb183" stroke="#8a4f34" stroke-width="1.2"/><circle cx="82.00" cy="105.00" r="3.6" fill="#edb183" stroke="#8a4f34" stroke-width="1.2"/><circle cx="82.00" cy="82.00" r="3.6" fill="#edb183" stroke="#8a4f34" stroke-width="1.2"/><circle cx="59.00" cy="82.00" r="3.6" fill="#edb183" stroke="#8a4f34" stroke-width="1.2"/><circle cx="128.00" cy="36.00" r="3.6" fill="#edb183" stroke="#8a4f34" stroke-width="1.2"/><circle cx="151.00" cy="36.00" r="3.6" fill="#edb183" stroke="#8a4f34" stroke-width="1.2"/><circle cx="174.00" cy="36.00" r="3.6" fill="#edb183" stroke="#8a4f34" stroke-width="1.2"/><circle cx="174.00" cy="59.00" r="3.6" fill="#edb183" stroke="#8a4f34" stroke-width="1.2"/><circle cx="197.00" cy="59.00" r="3.6" fill="#edb183" stroke="#8a4f34" stroke-width="1.2"/><circle cx="197.00" cy="82.00" r="3.6" fill="#edb183" stroke="#8a4f34" stroke-width="1.2"/><circle cx="174.00" cy="82.00" r="3.6" fill="#edb183" stroke="#8a4f34" stroke-width="1.2"/><circle cx="174.00" cy="105.00" r="3.6" fill="#edb183" stroke="#8a4f34" stroke-width="1.2"/><circle cx="151.00" cy="105.00" r="3.6" fill="#edb183" stroke="#8a4f34" stroke-width="1.2"/><circle cx="128.00" cy="105.00" r="3.6" fill="#edb183" stroke="#8a4f34" stroke-width="1.2"/><circle cx="128.00" cy="82.00" r="3.6" fill="#edb183" stroke="#8a4f34" stroke-width="1.2"/><circle cx="128.00" cy="59.00" r="3.6" fill="#edb183" stroke="#8a4f34" stroke-width="1.2"/><circle cx="128.00" cy="105.00" r="3.6" fill="#edb183" stroke="#8a4f34" stroke-width="1.2"/><circle cx="151.00" cy="105.00" r="3.6" fill="#edb183" stroke="#8a4f34" stroke-width="1.2"/><circle cx="174.00" cy="105.00" r="3.6" fill="#edb183" stroke="#8a4f34" stroke-width="1.2"/><circle cx="197.00" cy="128.00" r="3.6" fill="#edb183" stroke="#8a4f34" stroke-width="1.2"/><circle cx="174.00" cy="151.00" r="3.6" fill="#edb183" stroke="#8a4f34" stroke-width="1.2"/><circle cx="151.00" cy="151.00" r="3.6" fill="#edb183" stroke="#8a4f34" stroke-width="1.2"/><circle cx="128.00" cy="151.00" r="3.6" fill="#edb183" stroke="#8a4f34" stroke-width="1.2"/><circle cx="128.00" cy="128.00" r="3.6" fill="#edb183" stroke="#8a4f34" stroke-width="1.2"/><circle cx="59.00" cy="174.00" r="3.6" fill="#edb183" stroke="#8a4f34" stroke-width="1.2"/><circle cx="82.00" cy="174.00" r="3.6" fill="#edb183" stroke="#8a4f34" stroke-width="1.2"/><circle cx="82.00" cy="151.00" r="3.6" fill="#edb183" stroke="#8a4f34" stroke-width="1.2"/><circle cx="105.00" cy="151.00" r="3.6" fill="#edb183" stroke="#8a4f34" stroke-width="1.2"/><circle cx="128.00" cy="151.00" r="3.6" fill="#edb183" stroke="#8a4f34" stroke-width="1.2"/><circle cx="128.00" cy="174.00" r="3.6" fill="#edb183" stroke="#8a4f34" stroke-width="1.2"/><circle cx="128.00" cy="197.00" r="3.6" fill="#edb183" stroke="#8a4f34" stroke-width="1.2"/><circle cx="105.00" cy="220.00" r="3.6" fill="#edb183" stroke="#8a4f34" stroke-width="1.2"/><circle cx="82.00" cy="220.00" r="3.6" fill="#edb183" stroke="#8a4f34" stroke-width="1.2"/><circle cx="82.00" cy="197.00" r="3.6" fill="#edb183" stroke="#8a4f34" stroke-width="1.2"/><circle cx="59.00" cy="197.00" r="3.6" fill="#edb183" stroke="#8a4f34" stroke-width="1.2"/><circle cx="59.00" cy="128.00" r="3.6" fill="#edb183" stroke="#8a4f34" stroke-width="1.2"/><circle cx="82.00" cy="105.00" r="3.6" fill="#edb183" stroke="#8a4f34" stroke-width="1.2"/><circle cx="105.00" cy="105.00" r="3.6" fill="#edb183" stroke="#8a4f34" stroke-width="1.2"/><circle cx="128.00" cy="105.00" r="3.6" fill="#edb183" stroke="#8a4f34" stroke-width="1.2"/><circle cx="128.00" cy="128.00" r="3.6" fill="#edb183" stroke="#8a4f34" stroke-width="1.2"/><circle cx="128.00" cy="151.00" r="3.6" fill="#edb183" stroke="#8a4f34" stroke-width="1.2"/><circle cx="105.00" cy="151.00" r="3.6" fill="#edb183" stroke="#8a4f34" stroke-width="1.2"/><circle cx="82.00" cy="151.00" r="3.6" fill="#edb183" stroke="#8a4f34" stroke-width="1.2"/><rect x="20" y="20" width="104" height="28" fill="#d9f2ea" rx="14"/><text x="30" y="39" font-size="15" font-family="Georgia, serif" font-weight="700" fill="#1d4d3f">ACCEPTED</text><text x="20" y="286" font-size="14" font-family="Menlo, monospace" fill="#3f372d">mean 0.163  max 0.572</text><text x="20" y="306" font-size="14" font-family="Menlo, monospace" fill="#3f372d">f1 0.861  iou 0.756</text><text x="20" y="326" font-size="14" font-family="Menlo, monospace" fill="#3f372d">turn 1.061x  len 1.159x</text><text x="20" y="346" font-size="13" font-family="Menlo, monospace" fill="#5d5146">reasons: none</text></svg>